<svg xmlns="http://www.w3.org/2000/svg" viewBox="0 0 453 1101"><path fill="#f1f1f1" d="M200.5 66Q204.3 64.8 203 68.5L202 72 199 70.5Q198.3 66.8 200.5 66zM175.5 68Q177.8 67.3 177 69.5L175.5 75Q173 74 174 69.5L175.5 68z"/><path fill="#f1f1f1" d="M170 70Q173.8 68.5 173 71.5L172 74.5 174.5 77Q177.1 76.2 176 79.5 178.8 80.3 178 84.5 176.5 87.5 175 84.5L173.5 80 170.5 82 168 79.5 166 73 170 71.5 170 70zM199 75Q201.7 73.9 201 76.5L203 80 199.5 79 196.5 85 195.5 83 194 86Q191.3 87.1 192 84.5L190.5 85Q187.9 84.2 189 87.5L186.5 91 184.5 86 183 88.5 185 93.5 181 95 179 89Q182 90.3 181 86.5L181 84.5 182.5 82 185.5 86 191 79.5 190 77 196 76Q194.9 78.7 197.5 78L199 75zM196 78L196 79 196 78zM195 79L195 80 195 79zM165.5 88L168 88Q166.9 90.7 169.5 90L171.5 89 176 92.5 174.5 96 172.5 91 172 95.5 173 98 168.5 97 168 99.5Q169.3 102.3 170.5 100 174.3 99 173 102 170 100.8 171 104.5L166 107Q164.9 109.7 167.5 109L170.5 108 173 109.5Q172.1 106.5 176.5 108L177 110.5 177.5 112 182 111Q180.5 114.7 183.5 114L188 113 188 118 185.5 118 182 120.5 180.5 124 173 119.5 171.5 115 169.5 117 159.5 120 156.5 114Q153.9 113.3 155 116 158 115 157 118L154 118.5 159.5 123Q161.2 119.2 163 122.5L160 123 160 125Q163.7 123.5 163 126.5L164.5 126 168 126.5 166 127.5 167 130Q162.5 128.5 164 133L159.5 133 155.5 134 152 133 153 130.5 148.5 124Q145.9 124.8 147 121.5L149.5 117 153.5 118 154 115 150 112.5Q148.7 105.7 151 102.5L150 98.5 153.5 94 158.5 92 166 96 164 92.5 164 89.5 165.5 88zM168 96L168 97 168 96zM158 104L157 106 158 106 158 104zM159 108L157 111 159 111 159 108zM177 112L177 113 177 112zM181 114L181 115 181 114zM182 116L182 117 182 116zM161 126L160 128 161 128 161 126zM171 126L171 128 174 128Q175 124 171 126zM163 128L162 130 163 130 163 128zM188 92L194 94.5 193.5 96Q196.1 95.2 195 98.5L196 102Q192.2 103 191 100.5L190.5 99 188.5 102Q185.5 102.9 187 98.5 192.5 96 188 93.5L188 92z"/><path fill="#f1f1f1" d="M179 100Q182.8 98.5 182 101.5L181 104.5 182 107 179.5 108 174 107 175 101Q177.7 99.9 177 102.5L179 101.5 179 100zM193 105Q196 104 195 107 192 108 193 105zM452.5 108L453 136.5 452 136.5Q448.6 131.4 450 121.5L452.5 108zM187 120Q190 119 189 122 186 123 187 120zM176.5 123Q178.8 122.3 178 124.5L179 127 177 127.5Q179.5 129 176 130.5L175 134Q178 132.8 177 136.5L173.5 139Q169.8 137.5 171 132L168 130.5 171.5 124 174.5 125 176.5 123z"/><path fill="#f1f1f1" d="M447.5 127Q450.8 128.8 449 135.5L451.5 138 453 138.5 453 169Q449.2 170 448 167.5L447 163 444 161.5 445 156.5 444 154.5 445 150.5 443 147.5 443 135.5 445 129.5 447.5 127zM429 131Q431.7 129.9 431 132.5L432 135.5 430 139.5 431 142.5 430 145.5Q432.3 146.7 431 151.5L427.5 157 426 157.5 429 159.5Q429.8 162.1 426.5 161L426.5 162Q429.9 161.1 428 166.5L427 169.5 429.5 168Q432.1 167.2 431 170.5 427.8 172.8 429 179.5L426 183.5 429.5 181Q436.4 183 435 179 429.7 180.8 432 173.5L434.5 170 436.5 174 438 167Q442.7 166 444 169.5L445 172.5 444 173.5 447 176.5 446 177.5 446 180Q449 178.8 448 182.5L447 187Q442.4 185.8 441 188.5L445 189.5 443.5 192 446 190.5Q445.3 188.3 447.5 189 449 192.5 450.5 190L452.5 189 453 194.5 452 197.5 453 198.5 453 206 447 206.5 448.5 210 452 209Q454.1 212.3 453 220.5L451 224.5 453 224.5Q454.3 231.8 449.5 233L447 233 447 228 444 228Q445.3 233 442 234.5L443.5 235Q444.8 232.8 446 235.5L443 241.5 444 241.5 446.5 238 448 241.5 447 243.5 448.5 243Q452.3 241.8 451 245.5 448.5 247 450 252.5L452 256.5 451 260 448 260Q449.5 264.5 445 263L445 266.5 443 269.5 444 270.5 445 281.5 446.5 283Q449.5 282.2 448 286L444 287 443 292.5Q446.2 295 445 301L442 299.5 441.5 297 441 299 438 297.5Q438.7 294.9 436 296L437 301Q440.3 299.7 439 304.5 436.3 307.8 437 314.5L435.5 316 434 316.5 437 318.5Q438 323.5 435 324.5L438 326.5 437 331 433.5 330 430.5 331Q428 330 429 325.5L430 321Q427.3 319.9 428 322.5L425.5 324 422 323 420 317 423 315.5Q421.5 309.5 424.5 308L428 306.5 425.5 303 423 301.5 429 286.5 436 260 432.5 261 431 258.5 433 255.5 431.5 251 431 253Q425.8 254.8 428 247.5L430 241.5 427.5 243 425 241.5 425 237.5 421.5 231 416.5 230 417.5 232Q419.8 231.3 419 233.5 425.2 236.8 424 246L421 246 421 242 419.5 242 418 241.5 419 248.5 415.5 253 413.5 249 412 252.5 413 257Q409.2 257.8 408 254.5 408.8 252.3 406.5 253L400.5 244Q399.3 246.2 398 243.5 399 239 396.5 238L393 239.5 391.5 242Q387.8 242.8 387 240.5L387 236 382 236 382 232.5 381 229.5Q384 228.5 383 223.5L381 219.5 393 215 394 220 401 219 400 215.5 406 213 408.5 223 410 220.5Q407.3 219.4 408 216L411.5 217Q413.8 216.3 413 212.5L410.5 214Q406.3 215.3 408 210.5L407 207 413 208 413.5 212 415.5 211 421 214.5 422.5 221Q425.6 216.2 424 206.5L422 203.5 424.5 202 426 203.5 424.5 206Q426.8 205.3 426 207.5L427 207.5 428 202 432 201.5 425.5 201 424 199.5Q425.5 195.1 422.5 196L420.5 197 418 194.5 417 189 419 188.5 416.5 188 412 189 412 180.5 413 179.5 410 177.5Q408.9 174.2 411.5 175L410.5 173Q407.9 172.2 409 175.5L408 178Q404.2 179 403 176.5L405 171.5 403.5 172 400 172Q401 169 398 170 399.5 173.8 396.5 173L393.5 172 391.5 173 389 169.5 392.5 164 395.5 165 397 163.5 398 156.5 400 152 402.5 151 406 160.5 410.5 165 416 164.5Q414.8 161.8 413.5 164 409.5 164.5 409 161.5 405.3 159.3 406 152.5L412 147.5 413 142.5 416 138 422.5 139 426 138 425 135.5 426 133Q430.1 134.3 429 131zM411 170L410 172 411 172 411 170zM426 184L424 190 425 192 427 189 426 184zM440 189L440 190 440 189zM433 202L433 203 433 202zM435 203L435 204 435 203zM413 217L412 219 413 219 413 217zM404 233L404 236 401 242 402 243 408 240Q409 237 407 238L404 233zM432 234L430 236 431 241 432 237 432 234zM447 244L447 245 447 244zM446 245L444 247 445 250 446 247 446 245zM415 247L414 249 415 249 415 247zM433 247L432 250 433 250 433 247zM167.5 135L168 137.5 166 136.5 167.5 135zM174 141Q177 140 176 143 173 144 174 141zM163.5 142L164 145Q161 144 162 147L168.5 146Q171.3 147.3 169 148.5L168 156.5Q163.9 158.8 165 165 170.2 162.9 169 167.5L166 177.5 159.5 185 150 189.5Q150.7 192.1 148 191L148 193.5 145 199 143 199Q144.1 201.7 141.5 201L130.5 211 127 212.5Q126.8 218.3 123.5 221 117.5 219.5 116 222.5L115 226.5 116 229.5 113.5 233Q109.1 231.5 110 234.5L112.5 236 117.5 234Q118.3 236.7 122.5 236L128 232 125 241.5 118 248.5Q116 255.5 111 259.5L122.5 261 133.5 252 135.5 252 137.5 252Q142 253 143 250.5 141.7 246.3 146.5 248 149.2 245.2 155.5 246L159.5 249 168.5 250 171.5 252 180.5 247Q189.5 250.5 201.5 251 203 248.5 208.5 250L211.5 248 218.5 250 223.5 247 226.5 248 228.5 247 230 250Q233.8 249 235 251.5L239 256.5 243 269.5 242 271.5 243 273.5Q239.1 283.1 231.5 289 228.8 288.4 230 294.5L227 301.5 227 305.5 229 309.5 220 326.5 221 331.5 212 348 207 350.5 206 358.5 204.5 360Q201.9 359.2 203 362.5L204 365.5 199.5 372 196 374.5Q196.8 376.8 194.5 376L190 379.5Q191.3 383.3 187.5 382L183.5 381 181 382.5 185 383Q183.5 391.2 188.5 394L195 395 198 399.5 198 403 188.5 409 181 410Q182.8 405.5 177.5 407L169 414.5Q169.8 416.8 167.5 416L162.5 424 157.5 424 150 428.5 159.5 431 162.5 430 172.5 434 180 431Q180.5 424.4 185.5 421L195.5 421 196 422.5 199 428 204.5 428 214 434.5 214.5 436 222.5 436 224.5 437Q225.8 434.8 227 437.5L227 441Q231.1 439.3 230 443.5L235 450.5 235 453.5 241.5 460 247.5 461 249 462.5 248 464.5Q250.7 465.6 250 469 255.6 468 257 472.5L258 475.5 257.5 477 260 478.5Q259.4 483.1 262 484.5L262 491.5Q258.5 493 261 494.5L262 498Q266 496.6 264 503.5L263 506.5 267 510.5 268 514.5 266 517.5 270 519.5 268 523.5 271 525Q271.6 532 277 535.5L278 548.5 280 555.5 284 562 289 563Q287.3 569.1 290.5 571L295.5 572 299.5 576 304.5 577 306.5 579 314 580 315.5 583 328 588.5Q327.3 591.1 330 590L330 595Q333.7 593.5 333 596.5L337 601.5 338 606.5 341.5 612 347 614Q346.9 618.9 350.5 621L353.5 621 360 624.5 360 626 355 626 355 627.5Q351.4 628.9 352 634.5L360 654 363 655.5 376 672.5 377 678.5 376 681Q373.3 682.1 374 679.5L375 676.5Q373 673 366.5 674 365 676.5 359.5 675L354 672 354 670Q351.3 671.1 352 668.5L351 668.5 350 670.5 356.5 677 358.5 677 368 683.5 371.5 689 376 690Q374.9 687.3 377.5 688L382 699.5 393 716.5 394 726.5 393 731Q388.3 731.5 386 735.5L382.5 741Q380.3 740.3 381 742.5L376 750Q373 748.8 374 752.5L373.5 754 380.5 755 385 759.5 386.5 762 389.5 763 394.5 762 397 763Q395.9 760.3 398.5 761 402.8 759.3 400 757.5L400 754.5 403 750.5 403 746.5 406.5 743 413.5 742 419.5 744 420 742 431.5 743 436.5 741Q441.2 744.8 451.5 743L453 744.5 453 870.5 451.5 871 446 872 444.5 869 436 873.5Q436.8 875.8 434.5 875L433.5 877 439.5 874 441 875.5Q439.6 884.4 442 889.5L438.5 894 436 895.5 434.5 898 431.5 900 430.5 899 420 899 418.5 902 415 901Q413.8 904 417.5 903L418.5 904 426.5 904 428 905.5 427 908.5 428.5 909 432.5 907Q434.8 909.7 440.5 909L443 911.5 444 913.5 442.5 916 446.5 916 453 913 453 947.5 448 954.5 448 959.5 449 963 445.5 964 436.5 962 427.5 970 412.5 975 407 978.5 403 983.5 403 986 400.5 987Q398.3 983.2 391.5 984L387.5 981 366.5 978 358.5 981 350.5 981 333 985Q334 988.8 331.5 990L320.5 984 317.5 985 314.5 984 310.5 986 308.5 985 305.5 986 290.5 975 294 979.5 296 982.5Q294.5 986.3 289 985 290.3 988 286.5 987L282 988 280 993 275.5 990 268.5 990Q265.8 991.2 268 992.5 268.8 994.8 266.5 994L265.5 993 257.5 993 252 996 252 994 247 994Q245.7 997.3 250.5 996L253 997 254 1001.5 251.5 1007 246.5 1009 238.5 1004Q227.3 1005.7 221.5 1002L218 1007.5 223 1010 220.5 1015Q218.3 1015.8 219 1013.5 217.6 1007.4 212.5 1005L196.5 994Q190.5 995 188.5 992 185.7 995.7 179.5 996L177.5 995 175.5 997 167.5 998 164 1001.5Q164.8 1004.1 161.5 1003L159 1004 159 1006 154 1006 154 1007.5 152 1013Q148.3 1011.6 150 1017.5L152 1021.5 147 1024.5Q145.8 1028.3 149.5 1027L152 1028.5 147.5 1036 146 1035.5Q146.8 1037.8 144.5 1037L142 1038Q139.1 1041.2 140 1048L134.5 1050 131.5 1049 129.5 1049Q124.8 1049.8 124 1046.5L125 1044.5Q121.9 1042.8 123.5 1041L116.5 1039 111.5 1041Q110.2 1037.3 106 1038L106 1034 104.5 1034 102 1038 99 1036.5Q99.8 1034.3 97.5 1035 93.9 1032.1 86.5 1033L80.5 1037 77.5 1037 73.5 1036 70.5 1037Q66.8 1038.3 68 1034.5L65.5 1036Q62.2 1034.9 63 1037.5L63.5 1039Q60.8 1038.4 62 1044.5L59.5 1048 55.5 1046 53 1050 49.5 1049Q49.6 1054.6 45.5 1056 42.8 1054.6 44 1050L42 1050.5 43 1052.5 40 1057.5 41 1060 39 1060.5 42 1062.5 42 1064.5 38.5 1071Q33.1 1069.1 34 1072.5L33 1076 29 1076 29 1074.5 27 1067.5 23.5 1062Q20.5 1059.2 15 1060L13.5 1057 11.5 1056 9 1058.5 8 1064Q2.9 1063 1.5 1067L0 1065.5 0 1051 3 1049.5Q2.3 1047.3 4.5 1048L10.5 1045 14 1045 15.5 1049Q18.8 1047.8 18 1044L24 1043Q22.9 1040.3 25.5 1041L29 1039 30 1035Q33.8 1036.5 33 1033.5L35 1031.5Q34 1027 36.5 1026L43 1022.5 44 1018.5 43 1016.5 44 1012.5Q41.8 1011.3 44.5 1010L48 1011Q46.8 1008 50.5 1009L52 1009.5Q50.5 1005.1 53.5 1006L55.5 1006Q60 1007 61 1004.5L62 998.5 63.5 997 70 993.5 73 988 77 987Q75.2 983.2 76 975.5L79 961 85.5 961 91.5 965 96.5 959 99.5 957 99 955.5 97 948Q100.3 949.3 99 944.5 96.8 943.3 99.5 942L110.5 940 114.5 940 125.5 937 128 938Q126.9 935.3 129.5 936L131.5 938 142.5 939 147.5 938 154 940.5 155.5 943 164.5 943 181 940 179 932.5 179 930.5 179 928Q182 929.3 181 925.5L183.5 921Q187.9 922.5 187 919.5L194.5 911 201 907.5 202 902.5 212 890.5 210.5 890 203 900 188.5 908 182.5 906 173 913.5Q173.8 915.8 171.5 915L170 918.5 171 920.5 169.5 922 154.5 924 152.5 922 144.5 922 143 920.5 140.5 916Q137.5 916.7 139 913L136 913 135.5 915 133 914 132 909.5 126 900Q122.2 901.5 123 898.5L120.5 900 116 900 116 905 114.5 905 112.5 904Q111 907.5 109.5 905L105 904Q106.8 908.5 101.5 907L99.5 908Q98.2 904.3 94 905 92.3 898.9 95.5 897 97.8 897.8 97 895.5L99 894.5 99 897 105.5 897 108 895.5Q102.6 895.4 100.5 892 99 894.5 93.5 893 89 890.5 88.5 884L85.5 886 73.5 887 71.5 886 69 887 69 893.5 68 894.5 70 895Q71.1 898.3 67 897 68.3 894 64.5 895 63 897.5 57.5 896 55.6 899.6 50.5 900L43 898 43 893 41.5 893 40 889 44.5 890 48 888.5 38.5 887 37.5 890Q34.2 891.1 35 888.5L31 887Q32.3 890 28.5 889L29.5 887Q32.5 887.7 31 884L34 884 34 881 36.5 881 40 880 40 872 37.5 872 30.5 870Q28.5 872.8 24 872L27 867.5 26.5 866Q32.7 866.7 34 862.5 33.1 859.5 37.5 861L42 858.5 42 853 48.5 853 50 852.5Q48.5 856.9 51.5 856L53 852Q55.7 850.9 55 853.5L58 855 57 851 62 851 62 849.5 65.5 843 68.5 844 69 842 77.5 841 79.5 842 83.5 837 84.5 838 89.5 833 93.5 833 101 829 103.5 824Q105.8 824.8 105 822.5L109 814.5 112 799.5 109 797.5 106 792.5 106 789.5 111 782.5 111 780.5 105 771.5 105 768 107 767.5 105 760 90.5 761 83 767.5 84 772 81.5 771 80.5 773 79 769 75.5 768Q73.8 771.5 68 770 69.1 772.7 66.5 772L65 769.5Q68.2 767.5 68 763L71 761.5 74.5 757Q76.8 754 82 755L84.5 751 90 748 92 744.5Q90.3 738.3 93 736.5L86 734 86 730Q80.4 732.2 82 726.5L79.5 723 75 724Q77 718 71 720L71 714 76.5 715Q79.6 713.6 79 708.5L78 706.5 81.5 705 88.5 703 99 705Q97.8 709.6 100.5 711 103.1 710.2 102 713.5L103.5 718 108.5 715 114 716.5 108 723.5 112.5 725 126 717.5Q122.2 716.3 123 712 127.3 711 126.5 714L130.5 714 136.5 718 141.5 718 151.5 712 160 711 161.5 714 173.5 724 174 722.5 174 720.5 167 711.5 166 707.5Q169.2 702.5 176 702L171 690.5 171 687.5 179.5 674 185 670.5 182.5 670 179.5 672 174 668.5 173 663.5 174 662.5 174 651 182.5 649 184 649.5 185 645.5 184 643 181 641.5 182 635.5 187 629.5Q184.2 627.5 185 623L182 624.5 180.5 627 178.5 628 174.5 622Q172.9 630.9 167.5 636 165.3 636.8 166 634.5L163.5 633 164 634.5Q162.7 638.7 167.5 637L166.5 639Q161.5 639.5 161 635.5L160 626.5 162 623.5 155 622 150 611.5 151 609.5 140 595.5 137 588.5 139 586.5 141 573.5Q144.1 566.1 150 561.5L150 553.5 155.5 547Q158.1 546.3 157 549L160 549 161 546.5 157 544.5 159 541Q156.9 539.4 151.5 540L148.5 538 147.5 541Q142.8 542.3 141.5 540L141 542.5 142 547.5 139.5 551 132.5 551 126 554.5 124.5 557 122.5 557 117.5 562 111.5 562 109.5 562 106.5 560 102 556.5 100.5 553 96.5 554 92 550.5 90.5 547 90 553.5 96 557.5 93 559.5 95 560 94 568.5 91.5 571 87.5 569 83.5 569 81 566.5 79 561.5 75.5 558 66 555 65 551 57 556.5Q57.9 565.6 62 571.5L62 573.5Q62.9 576.5 58.5 575L56 574 55 569.5 56 566.5 49.5 556 45 552.5 42 543.5 43 540.5 42 537.5 43 535 47.5 534 50 537.5Q48.5 543.5 51.5 545 54.1 545.8 53 542.5L51 538.5 50 531.5 55.5 519Q57.8 519.8 57 517.5L62 511.5 64 504.5 62 501 65 499.5 68 492 76 489 77 481.5 73 477.5 74 476.5 72.5 472 71.5 473 68.5 470Q64.8 470.8 64 468.5L64 466Q61.3 467.1 62 464.5 58.8 463.1 60 458 62.7 459.1 62 456.5L60.5 457 58 457Q59.3 461.1 56 460L57 453.5 59.5 451Q62.5 450.1 61 454.5L62 454.5 60 440.5Q63.3 439 62 434L67 433Q68.3 430 64.5 431L61.5 423 61 426.5 62 430 59 430.5 61 431 61 434.5 55.5 445 52.5 444 55 447.5 54 456.5 55 458.5 52.5 460 48.5 454 44 453 46 446 43.5 445 43 448 35 444.5Q37.5 443 34 441.5L35 428.5 38 422.5 36 423.5 32.5 428 29.5 427 29 431.5Q32.4 434.1 31 441.5L36 448.5 36 455Q30.4 454 29 458.5L26 466.5 26 470.5 28 475Q24.7 473.7 26 478.5L21 491.5Q24 492.5 23 497.5L19.5 503 13.5 502Q11.8 505.5 6 504L6 493.5 9.5 489Q11.8 489.8 11 487.5L12 484.5 11 479.5 12 477.5 11 473.5 13 471.5 15 461.5 20 454.5 18 454Q19.5 450.3 16.5 451 13.3 449.3 15 442.5L17 439.5 15.5 440Q12.9 440.8 14 437.5L12 431.5 19 419 23 418.5 21 418 21 414 19.5 414 20 412.5Q19.3 408.3 22 407.5L20.5 407 17 408 15.5 411 14 411.5Q16.8 412.3 16 416.5L6 432.5 4 441 0 442 0 422.5 2.5 420 13 412.5 10 408.5 14 406.5 12 402Q9 403 10 400L12 400 12 402Q14.7 400.9 14 403.5L15 406Q18.5 407.1 17 399.5L17 397.5 16.5 396 15 396.5 16.5 394 21 395 22.5 392 25 390.5Q25.8 388.3 23.5 389 22.3 391.3 21 388.5L22.5 385 25.5 384 27 384.5 29 380.5 27 377 20.5 381 20 379.5Q22.8 378.4 22 375L26 375 26 373.5Q28.8 372.4 28 369L31.5 370Q34.8 368.3 31 366.5L32.5 365Q36.5 365.5 37 362.5 36.3 358.8 38.5 358 42.5 358.5 43 355.5L40.5 355 38 355.5 32.5 362Q31.3 359.8 30 362.5L28 365.5 19.5 375 16.5 377Q15.2 373.3 11 374L12 378 14.5 378 19 381.5Q19 390.5 12.5 393L6.5 397 3 396 4 392.5 2.5 392 .5 395 0 371.5 1 371.5 1.5 373 4.5 372 10.5 374 11 372 1 370Q-1.3 366.4 0 357.5L0 355.5 0 343.5 2 343 3 347Q7 348.4 5 341.5L6 338 11 338Q9.5 334.2 12.5 335L12.5 334 3 335 9.5 320 14 318.5 11 317 11 314.5 15.5 310 22 308.5 18 308 16.5 303 12 305 13 307.5 11 311Q7.3 309.5 8 312.5L4.5 317 1.5 319 0 319.5 0 307.5 1.5 306Q3.8 306.8 3 304.5L0 303.5 0 287.5 2.5 287 6 292 3 293.5Q4.4 296.6 9.5 296 10.8 293 15 294 14.1 288.1 18.5 286L22 285.5 20.5 282 12.5 286 11 285.5Q11.7 288.1 9 287 7.9 284.3 10.5 285L10 283.5 9 281.5 11 278.5 8 273.5 8 266.5 9 264.5 8 262.5 12.5 259 15 263 18 262.5 17.5 260Q14.9 260.8 16 257.5L13.5 254Q10.5 254.9 12 250.5L13 246 17 244.5 12 241.5 12 230.5 13.5 229Q18.8 227.8 20 230.5L20.5 233 22 229.5 21 225.5 22 223 27 224Q26.2 229 29.5 231 32.8 232.1 32 229.5L31 227 33.5 228 34 226 36 226Q34.5 222.3 37.5 223 38.8 220.8 40 223.5L41.5 226 44.5 225 46 225.5Q45.8 220.8 42.5 219L40.5 218 38 219Q39.1 216.3 36.5 217L34.5 216Q33.3 218.3 32 215.5L32.5 214Q30.3 214.8 31 212.5L34 204 38 206.5 38.5 208 40.5 208 43 206.5 42 199.5 38 191Q35.3 192.1 36 189.5L37 187 41 189.5 41.5 191 43 187 50.5 189Q55.3 186.8 51 184.5L49 178.5 49.5 177Q46.5 177.7 48 174L50.5 175 51 172Q54.7 173.5 54 170.5L56 167.5 53 166Q52 160.3 55.5 158L59 155.5Q57.5 148.5 60.5 149L63.5 151 66.5 150 70 153.5 70.5 155 71 152Q73.7 150.9 73 153.5 75.3 157.5 80 158 78.7 162.1 82 161L82 155 86.5 155 90 156 90 158Q92.7 156.9 92 159.5L93.5 159 95.5 160 96 157 101 158Q100 161 103 160 101.5 156.2 104.5 157 106 159.5 107.5 156L110.5 157 113.5 152 115.5 157 117.5 156 120.5 158Q121.5 155 126.5 156L128 156.5 130 153.5 134.5 150Q139.1 150.6 140.5 148L142 150.5 141.5 152 146.5 150 151 152Q152.1 149.3 149.5 150 147.3 149.3 148 145.5L151 144Q149.3 148.1 153.5 147L163.5 142zM80 161L80 162 80 161zM94 161L94 162 94 161zM79 162L76 165 77 166 79 165 79 162zM92 164L91 166 92 166 92 164zM76 166L76 167 76 166zM82 166L82 167 82 166zM81 168L80 171 81 171 81 168zM55 188L55 189 55 188zM60 189L59 191 60 191 60 189zM61 191L61 192 61 191zM35 210L33 214 35 215 35 210zM37 213L38 215Q39 212 37 213zM39 227L40 229Q41 226 39 227zM49 228L49 229 49 228zM41 229L40 231 41 231 41 229zM103 232L103 233 104 233 103 232zM106 233L106 234 107 234 106 233zM22 234L22 239 23 239Q22 236 25 237L25 235 22 234zM18 245L18 248 19 248Q20 244 18 245zM113 247L108 251 103 251 103 252Q106 251 105 254 111 255 114 251L113 247zM101 252L98 256 102 253 101 252zM138 254L138 255 138 254zM97 256L97 257 97 256zM95 258L95 259 95 258zM94 259L93 261 94 261 94 259zM111 262L110 264 106 266Q103 265 104 269L104 270 109 268 111 265 111 262zM19 263L18 265 20 266 19 263zM23 263Q20 265 23 266L27 265 23 263zM104 265L104 266 104 265zM94 269L93 271 101 271 94 269zM30 281L30 282 30 281zM29 282L29 283 29 282zM28 283L28 284 28 283zM26 284L26 285 26 284zM20 293L17 295 21 296 23 295 20 293zM26 294L26 295 28 295 26 294zM20 299L19 302 20 302 20 299zM23 309L24 311Q25 308 23 309zM25 311L25 312 25 311zM33 311L33 312 34 312 33 311zM26 312L26 313 26 312zM16 318Q16 322 18 319L16 318zM19 323L19 324 19 323zM9 344L9 345 9 344zM43 351L42 353 43 353 43 351zM203 355L203 356 203 355zM3 356L3 358Q5 361 6 358 7 354 3 356zM20 356L20 357 21 357 20 356zM49 357L49 358 49 357zM30 373L30 374 30 373zM35 373L35 374 35 373zM29 374L28 376 29 376 29 374zM34 374L34 375 34 374zM50 375L50 376 50 375zM28 376L28 377 28 376zM49 376L49 377 49 376zM48 377L47 379 48 379 48 377zM31 378L30 380 31 380 31 378zM36 379L36 380 36 379zM47 379L47 380 47 379zM46 380L46 381 46 380zM43 381Q42 384 45 383 46 380 43 381zM170 383L168 384 164 389 176 384 170 383zM14 387L12 389 14 389 14 387zM163 389L163 390 163 389zM162 390L162 391 162 390zM24 400L24 401 24 400zM21 401L21 402 21 401zM22 402L21 405 23 406 22 402zM53 404L53 405 53 404zM52 406L52 407 52 406zM17 407L17 408 17 407zM51 407L49 411 51 410 51 407zM69 409L69 410 69 409zM24 410L23 412 24 412 24 410zM23 412L23 413 23 412zM22 413L22 414 22 413zM45 413L45 414 45 413zM43 415L43 416 43 415zM62 415L61 417 62 417 62 415zM42 416L41 418 42 418 42 416zM41 418L41 419 41 418zM63 418L64 420Q65 417 63 418zM40 419L38 422 40 421 40 419zM128 419L128 420 128 419zM132 423L131 426 136 428 139 427 147 429 149 429Q144 424 134 425L132 423zM20 424L19 427 20 427 20 424zM68 428L68 429 69 429 68 428zM69 429L69 431 76 436 79 436 69 429zM44 436L44 437 45 437 44 436zM81 436L81 437 82 437 81 436zM87 438L87 439 87 438zM51 439Q48 440 50 442 49 444 52 443L51 442 52 440 51 439zM244 463L246 466Q248 467 247 465L244 463zM250 469L249 471 250 471 250 469zM164 540L164 541 166 541 164 540zM162 541L162 542 162 541zM167 541L168 543 171 543 167 541zM5 551L4 553 5 553 5 551zM126 553L126 554 126 553zM9 555L9 556 9 555zM111 558L111 559 111 558zM12 580L11 584 14 586Q15 588 12 587 11 590 14 589L15 593 14 601 14 602 18 601 17 600Q17 595 20 595L19 587 18 585Q15 586 16 583L12 580zM12 602L12 603 13 603 12 602zM151 606L151 607 151 606zM164 618L162 620Q161 622 164 621L164 618zM163 622L163 623 163 622zM185 642L185 643 185 642zM346 666L339 669 339 670 351 668Q352 664 346 666zM189 668L189 669 189 668zM327 668L327 669 329 669 327 668zM326 669L326 670 326 669zM335 669Q334 672 337 671 338 668 335 669zM323 671L323 672 324 672 323 671zM180 709L180 710 180 709zM182 711L181 714 186 718Q189 719 190 717L182 711zM191 714L190 716 191 716 191 714zM78 715L78 716 78 715zM79 717L79 718 79 717zM128 720L127 722 128 722 128 720zM106 725L106 726 106 725zM94 734L95 737 96 735 94 734zM108 758L106 760 109 760 108 758zM118 777L118 778 118 777zM114 799L114 800 115 800 114 799zM443 867L443 868 443 867zM446 868L446 869 446 868zM437 870L437 871 437 870zM432 876L432 877 432 876zM428 877L429 880 430 878 428 877zM221 880L221 881 221 880zM219 882L219 883 220 883 219 882zM55 884L55 885 55 884zM426 886L426 887 426 886zM56 887L56 888 56 887zM58 887L58 888 58 887zM437 888L437 889 437 888zM50 889L50 890 51 890 50 889zM55 889L55 890 55 889zM213 889L213 890 213 889zM436 892L436 893 436 892zM414 902L414 903 414 902zM412 903L410 906 412 905 412 903zM396 906L396 907 396 906zM425 908L422 911Q417 910 418 913L423 912 426 913Q427 909 425 908zM436 915L436 916 437 916 436 915zM440 916L440 917 441 917 440 916zM188 921L188 922 188 921zM102 957L102 958 102 957zM289 973L289 974 289 973zM290 974L290 975 290 974zM315 978L314 982 317 982Q319 977 315 978zM320 978L319 981 320 981 320 978zM308 979L308 982 309 982Q310 978 308 979zM323 979Q323 982 320 981 319 984 322 983 326 981 323 979zM333 984L333 985 333 984zM245 994L245 995 245 994zM215 1004L215 1005 215 1004zM101 1026L102 1030 103 1027 101 1026zM103 1032L103 1033 103 1032zM112 1036L111 1038 112 1038 112 1036zM45 1043L45 1044 45 1043zM38 1060L38 1061 38 1060z"/><path fill="#f1f1f1" d="M413.5 194L417 195.5 418.5 198 421 199.5Q422.9 204.9 419.5 204 417.3 207 412 206L411 202 408 200.5Q407.2 197.9 410.5 199L413.5 194zM377 206L381.5 207 385 206 384 208.5 385 211.5 380.5 215 377 210.5 377 206zM420.5 206L422 209.5 419 211.5Q418 207 420.5 206zM394.5 241L397 242.5 395.5 246 393 244.5 394.5 241zM452.5 247L453 252.5 452 252.5 451 248.5 452.5 247zM330.5 255Q334.3 254.3 335 256.5L336 265.5 332.5 268 332 266 327 262.5Q326 256 330.5 255zM3.5 259L4 261.5 3 262.5 3 271.5.5 274 0 269.5 1 267.5 1 265.5Q0 260 3.5 259zM422.5 261L425 262.5Q426.5 267.8 422 266L421 262.5 422.5 261z"/><path fill="#f1f1f1" d="M432 262Q435.3 260.7 434 265.5L432.5 268Q431.3 265.8 430 268.5L430.5 270 432 269.5 432 272.5 427.5 283 425.5 282Q424.4 284.8 421 284L424 278.5 424 274.5 427 268.5Q424.8 267.3 427.5 266L430.5 267 432 262zM427 279L427 280 427 279zM.5 279L1 285.5 0 285.5.5 279zM423.5 285Q426.8 286.2 426 290 420.4 292.2 422 286.5L423.5 285zM446 292L449 292 449 297 446 295.5 446 292zM11 456L15 457.5 12 462.5 12 466 8.5 467Q5.8 465.8 8 464.5L7 462.5 11 456zM37.5 458L45 461.5Q48.2 464.8 47 472.5L46 473.5 49 476.5 51 482Q47.5 480.9 49 488.5L47.5 490 38.5 490 35 487.5 35 484.5 32 478.5 32 476.5 30 471.5 30 467.5Q31.6 460.6 37.5 458zM18 504Q20.7 502.9 20 505.5L18 506.5 18 504zM.5 544L3 545 4 550Q9.5 548.8 11 552.5L12 560.5 8.5 565 0 568 .5 544zM14.5 568L19.5 571Q21.8 570.3 21 572.5 23.2 573.8 22 578.5L24 580.5 25 589Q28.7 587.6 27 593.5L25 597.5 25 599.5Q26.1 602.8 23.5 602L24 603.5Q25.3 607.7 20.5 606L21 607.5 19 610.5 15.5 615 13 615Q14.1 617.7 11.5 617L6.5 615 .5 617 0 574.5 2.5 571 7.5 569 12.5 570 14.5 568zM90.5 599Q94.7 597.7 93 602.5 90.7 603.7 92 608.5L98 612.5Q98.8 615.1 95.5 614L88.5 626Q85.9 625.2 87 628.5L79 633 76.5 639 75.5 637 72 638Q73.1 635.3 70.5 636L68.5 638 63 639 64.5 636Q67.5 636.9 66 632.5L70 627.5 69 623.5 71.5 619 77 615.5 82.5 603 90.5 599zM63.5 772Q65.8 771.3 65 773.5L62 775 63.5 772zM27 883L30 884.5Q30.7 887.5 27 886L27 883zM295.5 986L298 987.5 298.5 986 302.5 989 310 990 311.5 994 313 994.5 307 999.5 305 1005Q302.7 1007.6 296.5 1007L293.5 1003 285.5 998 280.5 998Q279.3 1000.3 278 997.5L280 997 283.5 992Q287.8 992.8 288.5 990L290 990.5Q289.3 988.3 291.5 989L295.5 986z"/></svg>