<svg xmlns="http://www.w3.org/2000/svg" width="131" height="1190"><path fill="#E03A3E" fill-rule="evenodd" d="M70.563 32.516v10.617c0 11.761 5.117 17.642 15.352 17.642 10.234 0 15.351-5.88 15.351-17.642V32.516H70.563zm-66.633 0V.5h123.14v50.964c0 13.83-3.593 24.42-10.779 31.771-7.186 7.35-17.311 11.026-30.376 11.026-13.066 0-23.191-3.675-30.377-11.026-7.186-7.35-10.78-17.94-10.78-31.77v-18.95H3.93zM49.658 171.36l40.993-14.375-40.993-14.374v28.749zm-24.334 8.494v-45.737L3.93 126.767v-34.14l123.14 46.881v34.956L3.93 221.344v-34.139l21.394-7.35zm46.709 87.553v6.044c0 6.316 1.306 11.162 3.92 14.538 2.612 3.376 6.369 5.064 11.268 5.064 4.9 0 8.656-1.688 11.269-5.064 2.613-3.376 3.92-8.222 3.92-14.538v-6.044H72.033zM3.93 337.811v-39.857l47.361-30.546H3.93v-32.016h123.14v49.821c0 6.86-1.007 12.85-3.021 17.968-2.014 5.118-4.763 9.338-8.247 12.66-3.485 3.321-7.513 5.826-12.086 7.514-4.573 1.688-9.472 2.531-14.698 2.531-9.364 0-16.958-2.26-22.783-6.778-5.825-4.52-9.772-11.19-11.84-20.01L3.93 337.81zm96.03 60.275H3.93V366.07h96.03v-26.3h27.11v84.614H99.96v-26.298zm-96.03 40.51h123.14v32.016l-75.289 59.131h75.29v31.853H3.93v-31.853l75.289-59.131H3.929v-32.016zM99.96 657.48v-38.06H79.382v35.937h-27.11V619.42H31.04v38.06H3.93v-70.076h123.14v70.076H99.96zm-27.927 55.048v6.044c0 6.316 1.306 11.162 3.92 14.538 2.612 3.375 6.369 5.063 11.268 5.063 4.9 0 8.656-1.688 11.269-5.063 2.613-3.376 3.92-8.222 3.92-14.538v-6.044H72.033zM3.93 782.93v-39.856l47.361-30.546H3.93v-32.016h123.14v49.82c0 6.861-1.007 12.85-3.021 17.969-2.014 5.118-4.763 9.338-8.247 12.66-3.485 3.32-7.513 5.825-12.086 7.513-4.573 1.688-9.472 2.532-14.698 2.532-9.364 0-16.958-2.26-22.783-6.779-5.825-4.52-9.772-11.19-11.84-20.01L3.93 782.93zm91.62 81.02c2.831-3.485 4.927-6.97 6.288-10.454 1.36-3.485 2.041-6.86 2.041-10.127 0-4.139-.98-7.514-2.94-10.128s-4.518-3.92-7.675-3.92c-2.178 0-3.974.653-5.39 1.96-1.415 1.307-2.64 3.022-3.674 5.145-1.035 2.124-1.933 4.52-2.695 7.188a190.88 190.88 0 0 1-2.45 7.922c-3.484 10.454-8.138 18.104-13.963 22.95-5.825 4.846-13.42 7.269-22.783 7.269-6.315 0-12.03-1.062-17.148-3.185-5.117-2.124-9.5-5.227-13.147-9.311-3.648-4.084-6.478-9.093-8.493-15.028C1.507 848.296.5 841.571.5 834.058c0-15.573 4.627-30.001 13.882-43.287l25.804 13.721c-4.246 4.792-7.404 9.529-9.472 14.211-2.07 4.683-3.103 9.31-3.103 13.885 0 5.227 1.197 9.12 3.593 11.679 2.395 2.559 5.117 3.839 8.165 3.839 1.851 0 3.457-.327 4.818-.98 1.361-.654 2.613-1.743 3.756-3.267 1.144-1.525 2.205-3.512 3.185-5.963.98-2.45 2.069-5.417 3.266-8.902a178.75 178.75 0 0 1 4.328-12.17c1.58-3.974 3.675-7.513 6.288-10.617 2.613-3.103 5.907-5.608 9.88-7.514 3.975-1.905 9.01-2.858 15.107-2.858 6.098 0 11.623 1.007 16.577 3.022 4.954 2.014 9.2 4.846 12.739 8.494 3.538 3.648 6.287 8.112 8.247 13.394s2.94 11.19 2.94 17.723c0 6.098-.844 12.469-2.531 19.112a84.302 84.302 0 0 1-7.431 19.111l-24.988-12.74zm-16.005 69.913v46.227h47.525v32.016H3.93V980.09H54.72v-46.227H3.93v-32.016h123.14v32.016H79.545zm47.525 136.067H3.93v-32.016h123.14v32.016zm-56.507 57.825v10.618c0 11.76 5.117 17.64 15.352 17.64 10.234 0 15.351-5.88 15.351-17.64v-10.618H70.563zm-66.633 0v-32.016h123.14v50.964c0 13.83-3.593 24.42-10.779 31.771-7.186 7.35-17.311 11.026-30.376 11.026-13.066 0-23.191-3.675-30.377-11.026-7.186-7.35-10.78-17.94-10.78-31.77v-18.949H3.93z"/></svg>