<svg xmlns="http://www.w3.org/2000/svg" width="134" height="1025" fill="none"><path fill="#E03A3E" fill-rule="evenodd" d="M1.39886 414.675V440.972H129.847V414.675H1.39886zM1.39886 877.833V904.122H129.847V877.833H1.39886zM129.848 720.65H56.7236L129.848 657.767V648.31H1.40009V648.941H1.03435V674.675H70.9032L1.07051 737.25V746.928L129.848 746.952 129.848 720.65zM129.848 835.653H56.7236L129.848 772.81V763.337H1.40009V764H1.03435V789.682H70.9032L1.07051 852.26V861.95L129.848 861.991 129.848 835.653zM129.993 456.904H103.675V487.156H1.40016V513.493H103.675V546.985H129.993L129.993 456.904zM133.78 579.177L.64978 525.099V552.642L8.08923 555.777 8.08923 605.45.64978 608.5V635.951L133.78 581.89V579.177zM69.751 580.567L32.2081 595.627V565.524L69.751 580.567zM89.9464 266.609C83.4997 266.187 78.4235 260.797 78.4235 254.278V229.034H103.157L103.157 254.278C103.157 260.797 98.049 266.187 91.6385 266.609 91.337 266.645 91.0678 266.645 90.7944 266.645 90.489 266.645 90.2197 266.645 89.9464 266.609zM38.7867 266.609C32.3641 266.187 27.2477 260.797 27.2477 254.278L27.2477 229.034 52.0096 229.034 52.0096 254.278C52.0096 260.797 46.9013 266.187 40.4546 266.609 40.1853 266.645 39.912 266.645 39.6106 266.645 39.3413 266.645 39.068 266.645 38.7867 266.609zM127.574 266.609C128.904 262.739 129.579 258.599 129.579 254.278 129.579 244.668 129.635 202.644 129.635 202.644L.793686 202.644V254.278C.793686 258.599 1.49301 262.739 2.82737 266.609 5.88192 275.769 12.2884 283.417 20.5639 288.107 25.64 290.941 31.4397 292.725 37.6211 293.039H41.6162C47.8016 292.725 53.6053 290.941 58.6533 288.107 61.0206 286.749 63.1869 285.202 65.1925 283.417 67.2141 285.202 69.3965 286.749 71.7196 288.107 76.8199 290.941 82.5994 292.725 88.7969 293.039H92.788C98.9855 292.725 104.761 290.941 109.837 288.107 118.113 283.417 124.531 275.769 127.574 266.609zM89.9464 372.561C83.4997 372.139 78.4235 366.77 78.4235 360.231V334.986H103.157L103.157 360.231C103.157 366.77 98.049 372.139 91.6385 372.561 91.337 372.598 91.0678 372.598 90.7944 372.598 90.489 372.598 90.2197 372.598 89.9464 372.561zM71.7196 394.06C76.8199 396.893 82.5994 398.65 88.7969 398.991H92.788C98.9855 398.65 104.761 396.893 109.837 394.06 118.113 389.37 124.531 381.721 127.574 372.561 128.904 368.663 129.579 364.523 129.579 360.231 129.579 350.621 129.635 308.561 129.635 308.561H.898178V334.986H52.0097L52.0097 349.094.435974 372.268.435974 401.379 54.8191 374.712C58.1107 382.899 64.0711 389.739 71.7196 394.06zM32.2064 954.221L69.7533 969.301 32.2064 984.344V954.221zM133.778 970.607V967.902L.644058 913.832V941.364L8.08752 944.47 8.08752 994.183.644058 997.198V1024.68L133.778 970.607zM129.184 101.345L103.401 84.5732V111.212L.434708 111.212V136.822L129.184 136.822V101.345z" clip-rule="evenodd"/><path fill="#E03A3E" fill-rule="evenodd" d="M129.369 89.2796L129.369 59.1642L79.8526 26.7055L129.369 26.7055V0.910645L0.43428 0.910645V26.7055L50.9188 26.7055L0.43428 61.9494L0.43428 92.8848L65.7052 47.4403L129.369 89.2796Z" clip-rule="evenodd"/></svg>