<svg xmlns="http://www.w3.org/2000/svg" width="51" height="4" fill="none"><path fill="#fff" d="M9.219 0.0140488C9.032 0.0480488 8.859 0.134049 8.719 0.263049C7.356 1.51605 5.17 2.00705 3.845 2.00705C3.225 2.00705 2.704 1.94405 2.189 1.85105C1.645 1.74805 1.121 2.10305 1.017 2.64505C0.913004 3.18705 1.27 3.01933 1.814 3.12233C2.41 3.22933 3.084 3.30933 3.845 3.30933C5.406 3.30933 7.562 2.77233 9.375 1.44133C11.192 2.78633 13.368 3.30933 14.936 3.30933C16.497 3.30933 18.622 2.77233 20.435 1.44133C22.252 2.78533 24.428 3.30933 25.996 3.30933C27.564 3.30933 29.74 2.78633 31.557 1.44133C33.37 2.77233 35.495 3.30933 37.056 3.30933C38.624 3.30933 40.8 2.78633 42.617 1.44133C44.43 2.77233 46.586 3.30933 48.147 3.30933C49.028 3.30933 49.762 3.15133 50.365 2.90433C50.883 2.69833 51.134 2.80305 50.927 2.28705C50.72 1.77105 50.132 1.52005 49.615 1.72605C49.23 1.88405 48.775 2.00605 48.147 2.00605C46.822 2.00605 44.637 1.51505 43.273 0.262049C42.892 -0.0829512 42.311 -0.0829512 41.93 0.262049C40.566 1.51505 38.381 2.00605 37.056 2.00605C35.731 2.00605 33.578 1.51505 32.213 0.262049C31.832 -0.0829512 31.251 -0.0829512 30.87 0.262049C29.506 1.51505 27.321 2.00605 25.996 2.00605C24.671 2.00605 22.487 1.51505 21.122 0.262049C20.741 -0.0829512 20.16 -0.0829512 19.779 0.262049C18.415 1.51505 16.261 2.00605 14.936 2.00605C13.611 2.00605 11.426 1.51505 10.062 0.262049C9.835 0.0550488 9.524 -0.0369512 9.219 0.0140488Z"/></svg>