<svg xmlns="http://www.w3.org/2000/svg" width="149" height="10" fill="none"><path d="M24.4954 0.0417175C23.9381 0.144465 23.4226 0.404355 23.0054 0.794191C18.9437 4.58073 12.4295 6.06452 8.48102 6.06452C6.63344 6.06452 5.08088 5.87414 3.54619 5.59309C1.92509 5.28183 0.363589 6.35463 0.0536721 7.99255C-0.256244 9.63046 0.807604 9.12363 2.42871 9.43489C4.20477 9.75824 6.21326 10 8.48102 10C13.1327 10 19.5576 8.3772 24.9602 4.35494C30.3748 8.4195 36.8592 10 41.5318 10C46.1836 10 52.516 8.3772 57.9187 4.35494C63.3333 8.41648 69.8177 10 74.4903 10C79.1629 10 85.6473 8.4195 91.0619 4.35494C96.4645 8.3772 102.797 10 107.449 10C112.121 10 118.606 8.4195 124.02 4.35494C129.423 8.3772 135.848 10 140.5 10C143.125 10 145.312 9.52253 147.109 8.7761C148.653 8.15357 149.401 8.47002 148.784 6.91068C148.167 5.35134 146.415 4.59282 144.874 5.21535C143.727 5.69282 142.371 6.0615 140.5 6.0615C136.551 6.0615 130.04 4.57771 125.975 0.791169C124.84 -0.251415 123.108 -0.251415 121.973 0.791169C117.908 4.57771 111.397 6.0615 107.449 6.0615C103.5 6.0615 97.0844 4.57771 93.0167 0.791169C91.8814 -0.251415 90.15 -0.251415 89.0146 0.791169C84.95 4.57771 78.4387 6.0615 74.4903 6.0615C70.5418 6.0615 64.0336 4.57771 59.9659 0.791169C58.8305 -0.251415 57.0992 -0.251415 55.9638 0.791169C51.8991 4.57771 45.4803 6.0615 41.5318 6.0615C37.5834 6.0615 31.0721 4.57771 27.0075 0.791169C26.331 0.165619 25.4043 -0.112403 24.4954 0.0417175Z"/></svg>