<svg xmlns="http://www.w3.org/2000/svg" width="93" height="4" fill="none"><path d="M8.21903 0.0140488C8.03203 0.0480488 7.85903 0.134049 7.71903 0.263049C6.35603 1.51605 4.17003 2.00705 2.84503 2.00705C2.22503 2.00705 1.70403 1.94405 1.18903 1.85105C0.645034 1.74805 0.121034 2.10305 0.0170344 2.64505C-0.0869656 3.18705 0.270034 3.01933 0.814034 3.12233C1.41003 3.22933 2.08403 3.30933 2.84503 3.30933C4.40603 3.30933 6.56203 2.77233 8.37503 1.44133C10.192 2.78633 12.368 3.30933 13.936 3.30933C15.497 3.30933 17.622 2.77233 19.435 1.44133C21.252 2.78533 23.428 3.30933 24.996 3.30933C26.564 3.30933 28.74 2.78633 30.557 1.44133C32.37 2.77233 34.495 3.30933 36.056 3.30933C37.624 3.30933 39.8 2.78633 41.617 1.44133C43.43 2.77233 45.586 3.30933 47.147 3.30933C48.028 3.30933 47.775 2.00605 47.147 2.00605C45.822 2.00605 43.637 1.51505 42.273 0.262049C41.892 -0.0829512 41.311 -0.0829512 40.93 0.262049C39.566 1.51505 37.381 2.00605 36.056 2.00605C34.731 2.00605 32.578 1.51505 31.213 0.262049C30.832 -0.0829512 30.251 -0.0829512 29.87 0.262049C28.506 1.51505 26.321 2.00605 24.996 2.00605C23.671 2.00605 21.487 1.51505 20.122 0.262049C19.741 -0.0829512 19.16 -0.0829512 18.779 0.262049C17.415 1.51505 15.261 2.00605 13.936 2.00605C12.611 2.00605 10.426 1.51505 9.06203 0.262049C8.83503 0.0550488 8.52403 -0.0369512 8.21903 0.0140488Z"/><path d="M53.2189 0.0140488C53.0319 0.0480488 52.8589 0.134049 52.7189 0.263049C51.3559 1.51605 49.1699 2.00705 47.8449 2.00705C47.2249 2.00705 47.0839 3.30933 47.8449 3.30933C49.4059 3.30933 51.5619 2.77233 53.3749 1.44133C55.1919 2.78633 57.3679 3.30933 58.9359 3.30933C60.4969 3.30933 62.6219 2.77233 64.4349 1.44133C66.2519 2.78533 68.4279 3.30933 69.9959 3.30933C71.5639 3.30933 73.7399 2.78633 75.5569 1.44133C77.3699 2.77233 79.4949 3.30933 81.0559 3.30933C82.6239 3.30933 84.7999 2.78633 86.6169 1.44133C88.4299 2.77233 90.5859 3.30933 92.1469 3.30933C93.0279 3.30933 93.7619 3.15133 94.3649 2.90433C94.8829 2.69833 95.1339 2.80305 94.9269 2.28705C94.7199 1.77105 94.1319 1.52005 93.6149 1.72605C93.2299 1.88405 92.7749 2.00605 92.1469 2.00605C90.8219 2.00605 88.6369 1.51505 87.2729 0.262049C86.8919 -0.0829512 86.3109 -0.0829512 85.9299 0.262049C84.5659 1.51505 82.3809 2.00605 81.0559 2.00605C79.7309 2.00605 77.5779 1.51505 76.2129 0.262049C75.8319 -0.0829512 75.2509 -0.0829512 74.8699 0.262049C73.5059 1.51505 71.3209 2.00605 69.9959 2.00605C68.6709 2.00605 66.4869 1.51505 65.1219 0.262049C64.7409 -0.0829512 64.1599 -0.0829512 63.7789 0.262049C62.4149 1.51505 60.2609 2.00605 58.9359 2.00605C57.6109 2.00605 55.4259 1.51505 54.0619 0.262049C53.8349 0.0550488 53.5239 -0.0369512 53.2189 0.0140488Z"/></svg>