<svg xmlns="http://www.w3.org/2000/svg" id="Layer_1" viewBox="0 0 88 4"><path d="M5.2,0C5,0,4.9,0.1,4.7,0.3C3.4,1.5,1.2,2-0.2,2c-0.6,0-1.1-0.1-1.7-0.2C-2.4,1.7-2.9,2.1-3,2.6 C-3.1,3.2-2.7,3-2.2,3.1c0.6,0.1,1.3,0.2,2,0.2c1.6,0,3.7-0.5,5.5-1.9c1.8,1.3,4,1.9,5.6,1.9c1.6,0,3.7-0.5,5.5-1.9 c1.8,1.3,4,1.9,5.6,1.9c1.6,0,3.7-0.5,5.6-1.9c1.8,1.3,3.9,1.9,5.5,1.9c1.6,0,3.7-0.5,5.6-1.9c1.8,1.3,4,1.9,5.5,1.9  c0.9,0,0.6-1.3,0-1.3c-1.3,0-3.5-0.5-4.9-1.7c-0.4-0.3-1-0.3-1.3,0C36.6,1.5,34.4,2,33.1,2s-3.5-0.5-4.8-1.7c-0.4-0.3-1-0.3-1.3,0 C25.5,1.5,23.3,2,22,2c-1.3,0-3.5-0.5-4.9-1.7c-0.4-0.3-1-0.3-1.3,0C14.4,1.5,12.3,2,10.9,2S7.4,1.5,6.1,0.3C5.8,0.1,5.5,0,5.2,0z" class="st0"/><path d="M49.2,0c-0.2,0-0.4,0.1-0.5,0.2C47.4,1.5,45.2,2,43.8,2c-0.6,0-0.8,1.3,0,1.3c1.6,0,3.7-0.5,5.5-1.9 c1.8,1.3,4,1.9,5.6,1.9c1.6,0,3.7-0.5,5.5-1.9c1.8,1.3,4,1.9,5.6,1.9s3.7-0.5,5.6-1.9c1.8,1.3,3.9,1.9,5.5,1.9  c1.6,0,3.7-0.5,5.6-1.9c1.8,1.3,4,1.9,5.5,1.9c0.9,0,1.6-0.2,2.2-0.4c0.5-0.2,0.8-0.1,0.6-0.6s-0.8-0.8-1.3-0.6 C89.2,1.9,88.8,2,88.1,2c-1.3,0-3.5-0.5-4.9-1.7c-0.4-0.3-1-0.3-1.3,0C80.6,1.5,78.4,2,77.1,2s-3.5-0.5-4.8-1.7 c-0.4-0.3-1-0.3-1.3,0C69.5,1.5,67.3,2,66,2c-1.3,0-3.5-0.5-4.9-1.7c-0.4-0.3-1-0.3-1.3,0C58.4,1.5,56.3,2,54.9,2 c-1.3,0-3.5-0.5-4.9-1.7C49.8,0.1,49.5,0,49.2,0z" class="st0"/></svg>