<svg xmlns="http://www.w3.org/2000/svg" viewBox="0 0 281 545">
	<path fill="#AA896E" d="M83.14 193H188c2.86-.03 3.7-1.93 4.4-3 1.05-1.54 2.4-3.55 3.88-5.8H75.25c1.4 2.14 2.63 4 3.52 5.33.83 1.26 1.9 3.47 4.37 3.47zm66.4-87V65.34c0-.45.06-.9 0-1.33-.15-1.45-1.04-2.25-2.48-2.33-1.78-.08-2.82 1.1-2.8 3.12.07 13.75.03 27.47.04 41.2h5.25zm66.3 8.23c7.5 7.13 8 15.1 7.9 18.75-1.8.1-3.33 1.52-4.3 2.76-8.36-5.9-8.62-17.07-8.74-17.04-3.7 6.57-7.8 19.13-8.56 28.08 5.14-4.85 12.5-7.55 16.46-6.73.2.8.63 2.38 1.66 3.2-.1.4-4.94 8.8-16.98 9.8-10.6.54-16.7-6.7-17.88-8.03-.67 0-4.66-.05-7.1-.05-5.4 6.78-13.9 8.37-16.65 8.13-8.25.38-19.3-6.03-21.62-17.93 6.75 1.42 14.03 6.04 17.17 16.08-.05-3.38-.05-38.36-.05-40.16-1.1 6.65-6.9 11.66-9.9 13.78-1.53 1.08-5.14 2.13-7.18 2.53 1.67-8.32 7.85-15.17 16.5-17.22-5.46.05-37.66-.05-40.9-.05 6.9 1.76 15.4 8.47 16.5 17.23-2.45-.44-13.98-3.33-17.1-16.37 0 .94-.06 37.54.08 40.73 1.95-9.33 9.7-15.14 17.12-16.52-.28 3.92-5.18 15.1-17.2 17.53-7.52.55-16-1.2-21.02-7.76-.63 0-5.42.03-6.85.03-.76.67-6 7.74-16.37 8.03-8.88.64-16.36-5.96-18.5-9.77.68-.7 1.8-2.35 1.8-3.24 2.95.1 10.08.48 15.6 6.1-.2-11.8-4.66-21.42-7.9-26.94-.38 3.7-1.5 6.52-2.75 9.13-1.28 2.68-3.76 5.17-5.94 7.15-1.78-2.22-3.17-2.47-4.44-2.73-.5-5 1-11.8 7.86-18.4-13.5-4.25-21.62 2.34-24.22 4.06 3.5 5.65 7.23 11.17 11.03 17.07-.9.7-2.12 3.12-.63 5.97 1.4 2.7 3.22 4.06 6.1 3.55 5.57 9.14 14.45 11.55 21.87 11.87 7.2.3 16.15-4.44 19.93-10.12 2.9 4 10.26 10.25 20.66 10.18 14.96-.9 22.57-11.1 24.8-20.5 6.65 20.95 22.9 20.37 25.36 20.5 13.25-.38 19.02-8.75 20.52-10.26.36.38 5.85 9.37 19.12 10.23 14.93.43 22.06-11.02 22.73-11.85 3.38.34 5-1.38 5.85-2.86 1.28-2.14 1.23-5.2-1.1-7.66 4.57-6.85 7.84-11.55 11.26-17.13-9.45-4.57-15.06-5.33-24-3.14zM128 106V65.34c0-.45.04-.9-.02-1.33-.15-1.45-1.04-2.25-2.48-2.33-1.8-.08-2.82 1.1-2.8 3.12.07 13.75.03 27.47.04 41.2H128zm78.63 62.4H64.93c2.74 4.2 5.94 9.1 8.7 13.3H197.9c2.84-4.3 6.02-9.15 8.73-13.3zM151.3 58.72c.07 3.17 0 7.64.07 9.2 9.14 1.6 18.18 3.67 26.7 7.1 17.55 7.08 31.84 15.75 48.96 35.1 4.7.24 10.6 2.73 14.27 5.08.26-.37.65-.66.76-.75-.4-.68-2.6-3.58-2.98-4.2 5.33-.3 7.03-3.72 6.9-6.6-.08-2.6-2-4.7-4.48-5.42-1.27-.37-2.52-.34-3.7.2-2.33 1.04-3.47 2.88-3.73 5.3-1.03-1.1-2.7-3.1-3.55-4 4.5-.26 6.52-3.7 6.34-6.54-.16-2.6-2.53-5.1-4.94-5.47-1.2-.18-3.1 0-4.25.83-1.9 1.36-2.35 2.4-2.73 5-.66-.56-1.54-1.23-2.03-1.68-.52-.47-1.42-1.17-1.96-1.67 4.63-.25 6.34-4.73 5.58-7.54-.64-2.42-3.14-4.43-5.64-4.5-3.77-.13-6.28 3.1-6.15 6.6-1.16-.83-2.93-2.27-4.12-3.12 4.07-.32 5.68-5.1 4.76-7.68-.85-2.38-3.7-4.05-6.34-3.93-2.92.12-6.4 3.3-5.2 6.98-.7-.38-3.68-2.03-4.25-2.4 3.87-1.46 5-5.46 3.5-8.5-1.07-2.45-4.5-4.13-7.75-2.8-1.96.82-4.3 3.5-3.23 7.5-.93-.46-3.38-1.65-4.32-2.1 3.42-2.48 4.18-5.46 2.92-8-1.14-2.3-4.63-4.38-7.5-3.37-1.08.25-5.44 2.92-3.54 7.87-.97-.34-3.6-1.16-4.44-1.46 2.92-2.22 3.74-5.2 1.9-8.44-1.77-2.73-5.04-3.08-7.23-2.28-1.14.4-5.53 3.36-3.1 8.3-1.27-.32-3.46-.7-4.52-.97 3.43-2.9 2.56-7.1.43-9.1-1.82-1.7-4.43-2.27-6.65-1.18-2.63 1.3-4.37 4.57-2.6 8.66h-2.14zM129 19.3c.9-.32 1.7.18 2.12.44.64.4 1.1 1.8.85 2.47-.85 2.4-1.55 4.5-4.97 9.12.94 0 3.58 0 6.56-.02v12.2H120.7V49h30.92v-5.5H138.7V31.3c2.66 0 5 0 6.05 0-.97-1.06-3.93-5.76-4.88-8.77-.3-.77-.26-1.68.57-2.67 1.17-1.4 3.2-.24 4.03.07 2.6.97 4.78 2.15 6.88 3.9 0-1.13-.05-16.22-.05-16.98-1.87 1.86-6.52 3.8-9 4.67-.6.24-3.48-.7-2.6-3.24.94-2.76 2.88-6.36 4.8-8.28-2.24.14-15.5.05-16.98.1.78.82 3 4.33 4.47 8.7.17.55-.2 1.34-.77 1.96-1.24 1.33-3.04.34-3.62.14-2.9-1.02-6.73-3.64-7.45-4.28-.1 5.04-.06 15.27 0 17.37 2.03-1.8 6.34-4.07 8.84-4.7zM32.9 110.25c-.38.6-2.57 3.5-2.98 4.2.1.08.5.37.76.75 3.68-2.34 9.56-4.83 14.27-5.07 17.12-19.35 31.4-28.02 48.96-35.1 8.52-3.43 17.56-5.5 26.7-7.1.07-1.56 0-6.03.06-9.2h-2.14c1.76-4.1.02-7.36-2.6-8.66-2.23-1.1-4.84-.53-6.67 1.2-2.14 2-3 6.18.42 9.08-1.06.28-3.25.65-4.5.98 2.4-4.95-1.98-7.9-3.1-8.3-2.2-.8-5.47-.46-7.24 2.27-1.84 3.24-1.02 6.22 1.9 8.44-.83.3-3.47 1.12-4.44 1.46 1.9-4.95-2.46-7.62-3.55-7.87-2.87-1-6.36 1.07-7.5 3.37-1.25 2.54-.5 5.52 2.92 8-.94.45-3.4 1.64-4.3 2.1 1.07-4-1.28-6.68-3.24-7.5-3.24-1.33-6.68.35-7.74 2.8-1.52 3.04-.38 7.04 3.5 8.5-.58.37-3.57 2.02-4.26 2.4 1.2-3.67-2.28-6.85-5.2-6.97-2.63-.12-5.5 1.55-6.34 3.93-.92 2.57.7 7.36 4.75 7.68-1.2.85-2.97 2.3-4.13 3.1.13-3.48-2.38-6.7-6.15-6.6-2.5.1-5 2.1-5.64 4.52-.76 2.8.95 7.3 5.58 7.55-.54.5-1.44 1.2-1.97 1.68-.5.45-1.37 1.12-2.04 1.7-.38-2.6-.83-3.66-2.73-5.02-1.14-.83-3.06-1-4.24-.83-2.43.38-4.8 2.88-4.96 5.46-.18 2.83 1.84 6.27 6.34 6.52-.86.9-2.5 2.92-3.55 4-.26-2.4-1.4-4.25-3.74-5.3-1.18-.53-2.43-.56-3.7-.2-2.47.73-4.4 2.84-4.5 5.44-.1 2.87 1.6 6.28 6.92 6.6zm180.73 47.66c-3.04.95-19.12 6.57-31.53-6.35-1.64 1.24-9.56 8.63-20.98 8.54-14.17-.1-21.7-9.52-24.98-14.92-2.8 6.93-13.35 14.2-22.67 14.83-8.38.58-17.04-2.27-22.94-8.46-1.9 2-5.34 5.37-13.03 7.52-10.56 2.95-19.7-1.7-19.7-1.7s2.7 4.24 5.5 8.56h144.93c2.84-4.34 3.1-4.96 5.4-8zM95.93 143.98v-.02c1.18-.06 2.1-1.04 2.1-2.23 0-1.18-.92-2.16-2.1-2.22h-10.7c-1.17.06-2.1 1.05-2.1 2.23 0 1.2.93 2.18 2.1 2.23v.02h10.7zm-14.27-3.05c.23-.8.62-4.24 2.1-5.53 1.23-1.32 1.92.72 2.6 2.88.5 0 2.36 0 4.25.03h.05c1.9 0 3.75-.02 4.26-.02.68-2.16 1.37-4.2 2.6-2.88 1.48 1.3 1.87 4.74 2.1 5.53.9 3.3 3.56 5.47 7.37 5.62-.3-.72-1.66-3.96-1.37-8.53.18-3.14 1.58-6.15 1.32-7.95-.56-3.9-4.03-6.27-8.2-4.84-.75.25-.55.38-1.63.77-.27-7.95-4.15-13.04-6.45-15.88v-.03l-.03-.03v.04c-2.3 2.84-6.2 7.93-6.45 15.88-1.08-.4-.88-.52-1.64-.77-4.16-1.43-7.63.94-8.2 4.84-.25 1.8 1.15 4.8 1.33 7.95.3 4.57-1.08 7.8-1.37 8.53 3.8-.15 6.46-2.33 7.36-5.62zM187 139.5c-.05 0-.1 0-.14 0h-10.44c-.05 0-.07 0-.12 0-1.17.06-2.12 1.05-2.12 2.23 0 1.2.95 2.18 2.12 2.23.05.02.07.02.12.02h10.44c.05 0 .1 0 .14-.02 1.17-.06 2.1-1.04 2.1-2.23 0-1.18-.93-2.16-2.1-2.22zm-14.28 1.43c.23-.8.63-4.24 2.1-5.53 1.23-1.32 1.92.72 2.6 2.88.5 0 2.36 0 4.25.03h.05c1.88 0 3.74-.02 4.26-.02.67-2.16 1.35-4.2 2.6-2.88 1.46 1.3 1.86 4.74 2.1 5.53.88 3.3 3.55 5.47 7.35 5.62-.3-.72-1.66-3.96-1.37-8.53.2-3.14 1.6-6.15 1.33-7.95-.58-3.9-4.05-6.27-8.2-4.84-.76.25-.56.38-1.64.77-.26-7.95-4.14-13.04-6.44-15.88 0-.02-.02-.02-.02-.03 0 0-.03 0-.03.02-2.3 2.84-6.18 7.93-6.44 15.88-1.08-.4-.88-.52-1.64-.77-4.16-1.43-7.63.94-8.2 4.84-.26 1.8 1.14 4.8 1.33 7.95.3 4.57-1.08 7.8-1.37 8.53 3.8-.15 6.46-2.33 7.36-5.62zm-50.36-98.95h9.68v-8.74c-4.43 1.26-8 4.52-9.68 8.74zm17.85 0h9.7c-1.7-4.23-5.28-7.5-9.7-8.74v8.74zm-18.6 8.56c.94 4.52 3.93 8.28 7.96 10.28v45.12h13.13V60.82c4-2 7-5.76 7.95-10.28H121.6z"/>
	<path fill="#E03A3E" fill-rule="nonzero" d="M206.92 210.4L172.4 264h54.8v214H280V210.4h-73.08zM182 210h-62L53.12 312.92V210H0v268h53.12V373.04L125.76 478h63.72l-93.6-135.68L182 210z"/>
	<path fill="#1C273E" d="M29 499.2L46.44 544H36.9L33 533.57H13.9L10 544H.67l17.44-44.8H29zm-5.54 8.83l-6.5 17.3h12.96l-6.46-17.3zm73.78-8.83V544H88.3v-33.82l-11.06 29.5H67.8l-11.08-29.25V544H47.8v-44.8h13.08l11.65 30.24 11.62-30.24h13.1zm39.24 36.6v8.2H103v-44.8h33.23v8.2h-24.3v9.9h23.18v8.2h-23.16v10.3h24.54zm4.76-36.6h18.94c10.7 0 16.42 5.06 16.42 13.63 0 7.36-5.12 12.4-13.73 13.22l13.8 17.95h-10.83l-13.05-17.82h-2.64V544h-8.92v-44.8zm18.78 8.22h-9.86v10.98h9.86c4.86 0 7.4-1.8 7.4-5.57 0-3.7-2.66-5.4-7.4-5.4zm29.26-8.22V544h-8.92v-44.8h8.92zm27.16-.83c8.25 0 15.55 3.77 19.2 10.05l-7.68 4.7c-2.53-3.87-6.6-6.18-11.6-6.18-8.12 0-14.13 5.96-14.13 14.66.03 9 6.24 14.66 14.14 14.66 4.96 0 9-2.24 11.68-6.15l7.3 5.26c-3.97 5.82-10.72 9.47-18.9 9.47-13.8 0-23.53-9.76-23.53-23.23s9.72-23.23 23.52-23.23zm46.44.83l17.44 44.8h-9.53l-3.92-10.43h-19.1l-3.9 10.43h-9.32L252 499.2h10.88zm-5.53 8.83l-6.5 17.3h12.96l-6.45-17.3z"/>
</svg>
