<svg xmlns="http://www.w3.org/2000/svg" viewBox="0 0 284 391">
	<path fill="#E03A3E" d="M206.92.4L172.4 54h54.8v214H280V.4h-73.08zM182 0h-62L53.12 102.92V0H0v268h53.12V163.04L125.76 268h63.72l-93.6-135.68L182 0z"/>
	<path fill="#1C273E" d="M261.62 288h-.96l-18.38 45.7h9.32l1.14-2.53h16.93l1 2.52H280L261.62 288zm-5.7 34.9l5.26-12.92 5.08 12.9h-10.33zM230 333.4h8.9v-44.05h-8.87v44.1l-.04-.05zm-14.45-18.96l-21.3-25.1h-3.3v44.1h.22v.14h8.75v-24l21.36 23.95h3.28v-44.18h-8.97v25.1h-.05zm-39.12 0L155 289.36h-3.2v44.1h.2v.14h8.76v-24l21.3 23.95h3.34v-44.18h-8.97v25.1zM128.3 288l-18.47 45.7h9.4l1.06-2.53h16.88l1.05 2.52h9.36L129.2 288h-.95.05zm-4.73 34.9l5.12-12.92 5.15 12.9h-10.28zm-6.3-33.62H86.64v9.07h10.28v35.1h8.97v-35.1h11.37v-9.07zM72.2 333.46h9v-44.1h-9.04v44.1h.04zm-7-24.13c.96-1.83 1.57-3.75 1.75-5.95v-1.28c-.18-2.15-.8-4.12-1.75-5.86-1.58-2.88-4.2-5.04-7.3-6.13-1.32-.45-2.77-.68-4.2-.68H36.1v44.27h8.97v-17.6h4.8l7.85 17.68h9.93L58.6 315.1c2.75-1.1 5.1-3.2 6.55-5.77h.05zm-7.3-6.27c-.14 2.15-1.98 3.9-4.2 3.9h-8.67v-8.43h8.62c2.18 0 4.07 1.74 4.2 3.94v.6h.04zm-36.1-13c-1.32-.46-2.72-.7-4.2-.7H0v44.28h17.6c1.48 0 2.88-.22 4.2-.68 3.05-1.06 5.68-3.2 7.3-6.1 1-1.82 1.57-3.8 1.75-5.94v-1.38c-.18-2.06-.75-4.12-1.75-5.8-.44-.8-.96-1.57-1.58-2.3.57-.64 1.1-1.37 1.53-2.15 1-1.84 1.58-3.77 1.75-5.96v-1.28c-.17-2.16-.74-4.13-1.75-5.87-1.57-2.9-4.2-5.04-7.3-6.14h.04zm0 30.5c-.14 2.28-1.98 3.97-4.2 3.97H8.96v-8.56h8.58c2.18 0 4.07 1.83 4.2 4v.54l.04.05zm0-17.54c-.14 2.15-1.98 3.9-4.2 3.9H8.96v-8.4h8.58c2.18 0 4.07 1.75 4.2 3.95v.6l.04-.05z"/>
	<path fill="#1C273E" d="M82.13 316.03c.36-.1 3 .06 4.33.27 3.45.54 4.9.92 6.6 1.7 1.22.58 2.04 1.73 1.8 2.57-.27 1.03-1.03 1.93-2.94 3.5-1.82 1.5-2.03 1.6-4.03 2.42-1.82.72-2.76.76-2.76.1 0-.33.68-1.47 2-3.34.44-.63.95-1.42 1.13-1.77.3-.57.33-.7.3-1.23-.02-.6-.02-.6-.38-.8-.74-.4-1.56-.52-3.46-.45-.93.04-2.05.1-2.45.15-.42.05-1.23.1-1.8.1-1.47 0-4.92.4-8.6 1-.26.03-1.16.17-2.02.3-.84.13-3 .5-4.78.84-1.77.33-3.54.64-3.9.68-1.4.2-8.12 1.66-8.77 1.93-.37.16-1.94.57-4.35 1.12-.98.23-2.27.55-2.87.72-.6.17-1.72.48-2.5.7-2.4.63-2.54.8-1.64 2 .3.4.55.8.55.9 0 .3-.53 1.18-1.15 1.9-.78.88-1.6 1.9-1.76 2.2-.1.13-.55.8-1.04 1.5-.5.7-1.43 2-2.08 2.9-.63.9-1.82 2.5-2.63 3.54-2.25 2.93-5.17 7-5.43 7.58l-.23.5.23.2c.2.17.36.22.7.22.84 0 2.22-.2 3.6-.5 1.92-.43 5.06-.9 9.2-1.36 5.4-.6 6.98-.7 12.28-.72 1.2 0 7.64.2 9.94.3 1.2.06 1.54.1 1.9.27.86.4 1.27.97 1 1.46-.06.14-.26.35-.44.46-.3.18-.4.18-5.94.27-3.1.05-5.9.12-6.22.17-1.53.2-2.28.3-4.1.42-2.62.2-5.02.5-8.97 1.1-4.74.72-7.47 1.25-10.5 2.04-2.55.66-5.86 1.72-6.72 2.16-.47.24-.5.28-1.6 2.12-2.9 4.8-4.44 7.92-7.35 14.8-1.15 2.7-2.08 5.34-2.45 6.87-.04.2-.2.72-.32 1.18-.47 1.54-.54 2.35-.46 5.13.1 4.15.12 4-.14 4.2-.13.1-.35.17-.64.17-.5 0-.73-.13-1.8-1.05-.4-.33-.73-.6-.76-.6-.16 0-.5-.63-.66-1.2-.23-.86-.3-3.3-.17-5.74.12-1.87.18-2.28.6-3.56.12-.4.33-1.17.47-1.7.13-.54.4-1.43.62-1.95.2-.54.46-1.2.55-1.48.55-1.7 2.07-5.07 4.04-9 .34-.67.88-1.8 1.2-2.48.52-1.18.54-1.25.4-1.46-.07-.1-.27-.27-.45-.35-.3-.14-.4-.14-1.7 0-2.34.28-3.76.2-4.65-.25-.47-.24-1.26-1.14-1.26-1.45 0-.3.3-.62 1.06-1.1 1.07-.7 2-1.1 6.38-2.86 4.56-1.82 5.34-2.2 5.7-2.88 1.13-2.02 1.57-2.66 3.98-5.85 1.17-1.55 2.5-3.4 2.96-4.1l.84-1.26.04-.72c.04-.7.07-.78.7-1.95.7-1.3 1-1.75 2.56-3.8 1.02-1.33 2.27-3.26 2.27-3.5 0-.07-.05-.17-.1-.22-.28-.2-.7-.16-2.07.22-1.63.45-2.06.6-4.94 1.75-1.14.45-2.34.9-2.68 1.02-.35.1-.8.28-1 .4-.2.1-1.22.6-2.27 1.07-1.05.47-3.23 1.47-4.83 2.22-1.6.74-4 1.87-5.37 2.48-3.98 1.85-5.1 2.05-6.9 1.26-.96-.42-2.07-2.24-2.07-3.37 0-.4.4-.7 1.1-.8 1.42-.24 3.52-1.03 5.82-2.2 1-.5 2.22-1.05 3.55-1.6.53-.2 1.2-.5 1.5-.66.32-.14.6-.27.64-.27.06 0 .7-.26 1.46-.58 3.9-1.66 6.88-2.77 10.8-4 1.36-.45 2.55-.84 2.63-.88.15-.1 4.4-1.43 4.9-1.54.17-.05.7-.1 1.18-.14 1-.07 4.98-1 7.9-1.83.95-.3 2.24-.6 2.86-.73.63-.12 2.03-.44 3.1-.7 1.07-.28 2.15-.53 2.4-.56.23-.03 1.23-.25 2.23-.5.98-.25 2.28-.53 2.88-.63.6-.1 1.67-.32 2.37-.47.7-.15 1.65-.36 2.1-.46 1.97-.44 9.5-1.5 12.42-1.77.88-.07 2.1-.22 2.7-.32.76-.13 1.87-.2 3.77-.27 1.48-.05 2.76-.1 2.83-.13zm93.56 9.3c1.97-.1 3.03.07 3.4.5.1.14.1.2.02.35-.06.1-.1.2-.1.28 0 .05-.32.64-.7 1.32-.36.66-.67 1.24-.67 1.3 0 .03-.28.4-.62.78-.34.4-.8 1.02-1.04 1.4-.25.37-.7 1.02-1.05 1.45-.92 1.17-1.76 2.5-2.45 3.85-.7 1.37-1.35 2.42-2.18 3.5-.32.4-1.16 1.6-1.88 2.67-.7 1.07-1.6 2.4-2 2.95-.4.57-.72 1.08-.72 1.15 0 .07-.13.33-.28.58-.17.25-.33.57-.4.72-.04.15-.4.7-.77 1.2-.38.5-1.14 1.64-1.68 2.5-2.27 3.56-2.7 4.2-3.8 5.72-.64.87-1.6 2.22-2.13 3-.53.77-1.22 1.74-1.53 2.15-.3.4-.82 1.25-1.13 1.85-.56 1.07-.56 1.1-.44 1.4.14.32.3.38.7.22.12-.04.46-.17.76-.3.3-.1 1.12-.6 1.87-1.1.72-.52 1.52-1.06 1.76-1.2 1.46-.83 3.45-2.13 3.98-2.6.34-.3.96-.77 1.37-1.05.42-.27 1.3-.92 1.98-1.43.7-.52 1.53-1.13 1.88-1.35.65-.44 1.55-1.07 2.9-2.03.97-.7 2.2-1.34 3.22-1.64.43-.13 1.55-.48 2.48-.77.93-.28 2.02-.58 2.42-.64 1-.16 2.15-.15 2.86.04.33.08 1.2.22 1.92.3 1.57.16 2.16.3 2.58.67.4.36.44.55.3 1.5-.15.88-.38 1.4-1.24 2.73-.32.5-.8 1.34-1.1 1.86-.28.53-.62 1.13-.76 1.35-.14.23-.56 1-.93 1.72-.8 1.56-.86 1.94-.37 2.18.46.24 1.2.1 3.27-.55 1.5-.5 2.46-.9 5.1-2.1 2.1-1 3.68-1.67 4.57-1.96.73-.25 1.4-.45 1.46-.45.07 0 .23-.3.37-.67.16-.45.76-1.46 1.95-3.26 1.92-2.95 3.05-4.46 4.12-5.5.7-.7 2.1-2.64 2.4-3.35.17-.37.17-.88 0-1.3l-.1-.33-.9-.1c-1.23-.15-3.45-.16-9.3-.02-6.7.15-9.5 0-12.54-.6-.93-.2-1.28-.33-2.2-.8-.63-.3-1.13-.6-1.13-.63 0-.1 1.3-.45 2-.54.4-.06 5.9-.1 13.82-.1h13.15l.94-.93c.6-.6 1.14-1.23 1.5-1.77.28-.47 1.08-1.45 1.76-2.2.67-.72 1.42-1.57 1.66-1.87 1.33-1.65 1.65-1.9 2.8-2.2.74-.2 3-.23 3.4-.05.18.07.55.42.87.82l.55.68-.26.22c-2.98 2.5-5.35 4.75-6.48 6.13l-.58.7.9.07c1 .1 2.55.1 16.5 0 5.9-.03 11.07-.02 12.83.03 1.63.06 4.67.14 6.76.2 2.08.05 3.9.12 4.05.17.14.03.23.08.2.08-.04 0-.68.12-1.42.27-3 .6-5.78.88-9.94 1-1.53.05-5.12.22-7.98.36-7.32.4-8.68.45-14.1.6-9.48.3-9.73.3-10.28.45-1.02.28-1.36.54-2.1 1.67-.33.48-1.1 1.4-1.7 2.06-.6.65-1.1 1.2-1.1 1.26 0 .04-.1.1-.2.15-.3.1-.84.96-1.26 2-.2.47-.44.98-.55 1.12-.1.14-.88 1.28-1.72 2.55-2.45 3.65-3.35 5.53-3.57 7.46-.2 1.95.23 3.3 1.28 3.82.7.36 1.42.45 3 .4 2.3-.1 4.33-.48 6.8-1.3l1.44-.46.16-.54c.18-.64.47-1.28.7-1.6.1-.12.36-.53.57-.9.62-1.07 1.28-1.9 2.66-3.35 1.78-1.84 2.47-2.72 2.95-3.72.5-1.04 1.08-1.88 1.4-2.1.14-.08.34-.26.46-.4.4-.48 2.23-.6 3.08-.2.5.22 1.13.9 1.13 1.2 0 .4-.34.83-2.1 2.6-1 1-2.03 2.14-2.32 2.5-2.97 3.9-3.53 4.76-3.73 5.58-.05.22-.03.26.2.34.67.27 2 .06 5-.77 2.62-.74 5.14-1.58 7.68-2.6 1.23-.48 2.5-.96 2.84-1.07l.6-.2.93-1.54c1.12-1.88 1.7-2.6 2.9-3.74.53-.47 1.4-1.4 1.98-2.1.56-.67 1.13-1.3 1.24-1.37.55-.37 2.02-.7 4-.9 2.37-.24 2.87-.22 3.76.2.36.18.78.38.97.46.38.17 1.45 1.5 1.74 2.15.17.38.18.56.14 1.76-.05 1.7-.1 1.67 1.34 1.67.56 0 1.5-.04 2.1-.08 1.23-.1 1.22-.1 1.7-1 .14-.3.43-.8.64-1.13.2-.34.5-.9.7-1.27.15-.37.48-.96.7-1.32.24-.37.5-.75.55-.86.2-.3.76-.4 2.1-.37l1.2.05.5.32c.3.2.58.45.67.58.22.33.18 1-.1 1.6-.3.63-.3.85 0 .92.36.1.72 0 1.25-.37.26-.17.97-.55 1.58-.84.6-.3 1.4-.7 1.72-.92 1.1-.7 2.2-.96 3.75-.88.92.04 1.32.17 1.74.55.22.23.56.9.56 1.17 0 .38-.52 1.28-2.5 4.3-1.92 2.95-4.35 7.08-4.66 7.9-.24.7-.1 1.34.28 1.34.23 0 3.37-1.35 4.46-1.94.4-.2 1.17-.6 1.7-.9.52-.27 1.54-.73 2.27-1 1.34-.53 1.95-.78 3.83-1.6 1.2-.5 4.17-1.46 4.57-1.46.22 0 .25.03.25.3 0 .18-.06.44-.15.58-.16.28-.28.36-2.85 1.7-1.03.52-2.37 1.34-3.78 2.28-3.55 2.4-6.7 4.36-8.6 5.33-.47.25-.9.48-.96.52-.32.26-2.54 1.46-2.83 1.54-.2.06-.72.1-1.14.1-.72 0-.86-.02-1.38-.3-.35-.17-.84-.53-1.2-.9l-.64-.62.06-.57c.02-.3.2-.97.36-1.47.38-1.1 1.64-3.82 2.5-5.38 1.3-2.37 1.56-3.06 1.25-3.4-.18-.2-.6-.23-.88-.07-.1.05-.85.57-1.66 1.15-.8.57-1.66 1.2-1.9 1.36-.56.4-1.8.98-2.24 1.07-.66.13-1.32.44-1.7.78-.43.42-1.22.8-2.28 1.1-.98.26-1.33.18-1.8-.44-.46-.6-.45-1.04.03-1.8.2-.3.55-.9.8-1.3.22-.44.62-1.05.88-1.38.34-.42.43-.6.33-.62-.13-.02-1.03.16-2.62.53-.42.1-1.16.2-1.63.23-1.32.08-1.68.26-2.54 1.25-.37.46-.93 1.13-1.22 1.5-.57.68-1.53 1.57-2.47 2.24-1.6 1.14-5.24 3.28-6 3.53-1.25.4-2.25.42-3.53.1-1.6-.4-2.3-.92-2.9-2.1-.44-.86-.43-1.38.04-2.05.2-.27.34-.52.34-.55 0-.03.15-.3.32-.6.17-.28.32-.54.32-.6 0-.02-.5.2-1.1.5-4.53 2.27-10.45 4.7-13.06 5.37-1.44.37-3.4.17-4.56-.46l-.5-.27-.4.25c-.83.58-2.07 1.08-3.55 1.45-3.13.78-6.93.66-9.3-.3-1.67-.68-3.3-2.1-4-3.48-.5-.95-.62-1.48-.56-2.58.03-.5.03-.9 0-.9-.08 0-2.03 1.02-3.2 1.67-2.1 1.2-3.95 2.08-6.5 3.07-1.97.8-6.22.83-7.84.1-1.05-.5-1.66-1.48-1.42-2.26.07-.18.2-.5.28-.67.27-.53.22-.97-.1-1.1-.2-.07-.8.22-1.04.47-.35.4-1.03.83-2.47 1.56-.8.4-1.68.9-1.97 1.1-.67.45-2.27 1.2-3.2 1.5-1.02.3-2.27.5-3.57.5-1.8 0-2.63-.27-3.55-1.1l-.5-.47-.43.4c-1.1 1.05-2 1.6-3.74 2.27-1.45.56-2.05.7-3 .7-.73 0-1.03-.05-1.74-.3-.47-.13-1-.36-1.2-.48-.17-.13-.75-.44-1.27-.7-1.24-.63-1.35-.62-3.22.08-.8.3-1.7.66-2 .8-.65.28-2.07.58-2.8.58-1.05 0-1.97-.3-3.1-1.1-.8-.5-.92-.75-.92-1.62 0-.73.2-1.38.76-2.66.24-.54.38-.95.33-.92-.06.04-.78.52-1.6 1.1-2.93 1.96-6.43 4.12-8.2 5.03-.47.25-.9.48-.96.52-.32.26-2.54 1.46-2.83 1.54-.2.06-.72.1-1.14.1-.7 0-.85-.02-1.37-.3-.35-.17-.84-.53-1.2-.9l-.64-.62.05-.57c.02-.3.2-.97.36-1.47.4-1.1 1.65-3.82 2.5-5.38 1.32-2.37 1.57-3.06 1.26-3.4-.18-.2-.6-.23-.88-.07-.1.05-.85.57-1.66 1.15-.8.57-1.67 1.2-1.92 1.36-.55.4-1.8.98-2.23 1.07-.66.13-1.32.44-1.7.78-.43.42-1.22.8-2.3 1.1-.74.2-.75.2-1.2.06l-.45-.17-3.7 1.23c-2.05.67-4.1 1.3-4.57 1.4-1.1.24-3.04.4-3.96.33-1.47-.1-3.02-.8-4.05-1.83-1.08-1.06-1.2-1.54-.85-3.63.2-1.1.23-1.77.13-1.77-.15 0-1.34.7-1.47.85-.22.28-1.22 1.08-3.34 2.67-1 .75-2.1 1.6-2.46 1.88-1.16.92-4.14 2.05-5.4 2.05-1.07 0-2.7-1.13-3.32-2.3-.17-.32-.2-.52-.2-1.3 0-1.17.18-1.73 1.15-3.7.7-1.4.74-1.52.55-1.52-.5 0-2.35.3-3.36.55-1.24.32-2.15.46-2.84.46-.3 0-.65.1-.95.22-.5.22-.67.4-2.53 2.67-1.04 1.26-3.33 2.9-6.74 4.8-2.03 1.15-3.27 1.37-5.12.9-1.6-.4-2.3-.92-2.9-2.1-.4-.8-.42-1.38-.03-1.95.3-.43.68-1.1.93-1.63.08-.17.36-.77.62-1.3.6-1.3 2.36-4.22 3.03-5.08.3-.37.96-1.06 1.47-1.54.5-.47 1.4-1.4 1.96-2.1.57-.67 1.13-1.3 1.25-1.37.56-.37 2.02-.7 4.02-.9 2.35-.24 2.85-.22 3.75.2.35.18.78.38.96.46.38.17 1.46 1.5 1.75 2.15.17.38.18.56.15 1.76-.07 1.72-.1 1.67 1.33 1.66 1.63 0 4.82-.15 4.93-.2.14-.07 1.78-2.3 2.9-3.95.44-.62.94-1.27 1.1-1.4.56-.5 1.53-.62 2.43-.3.27.08.66.18.86.2.37.1.76.38.76.6 0 .06-.24.4-.54.72-1.3 1.46-3.73 4.96-5 7.15-.7 1.25-1.22 2.5-1.18 2.84.03.2.07.24.35.26.72.07 3.68-1.68 8.73-5.15 2.24-1.53 6.24-4.24 7.47-5.04.77-.5 1-.58 2.12-.65 1.02-.04 1.1-.03 2.42.57l.75.35-.04.6c-.04.74-.15.88-.9 1.3-.8.42-1.53 1.12-1.95 1.9-.42.77-.9 1.42-1.77 2.3-1.47 1.52-1.83 2.98-1.1 4.45l.33.64.54.04c.63.03 1.03-.03 3.6-.57 2.8-.58 5-1.08 6.8-1.57l1.58-.42.3-.5c.15-.3.47-.74.7-1.02.52-.66 1.18-1.78 1.5-2.54.14-.33.36-.74.5-.9.14-.2.37-.55.5-.8.13-.27.4-.76.6-1.1.22-.34.52-.9.7-1.27.16-.37.5-.96.72-1.32.23-.37.48-.75.54-.86.2-.3.76-.4 2.1-.37l1.2.05.5.32c.3.2.58.45.67.58.23.33.2 1-.1 1.6-.3.63-.3.85 0 .92.37.1.73 0 1.26-.37.27-.17.98-.55 1.6-.84.6-.3 1.37-.7 1.7-.92 1.1-.7 2.2-.96 3.75-.88.93.04 1.33.17 1.75.55.23.23.56.9.56 1.17 0 .38-.5 1.28-2.5 4.3-1.9 2.95-4.34 7.08-4.64 7.9-.25.7-.12 1.34.27 1.34.24 0 3.37-1.35 4.46-1.94.4-.2 1.16-.6 1.68-.9.53-.27 1.55-.73 2.28-1 .73-.3 1.67-.67 2.1-.85.42-.17 1.27-.53 1.87-.8l1.1-.45.76-.96c1-1.3 3.2-3.45 4.27-4.2 1.64-1.16 4-2.2 5.33-2.3 1.65-.14 4.68.3 5.9.84l.36.15.53-.57c.97-1.07 2.66-3.58 5.6-8.34 4.08-6.63 6.2-10 6.8-10.83 1.85-2.54 3.34-5.02 3.84-6.36.1-.3.3-.8.44-1.1.12-.3.24-.76.25-1.02.02-.48.03-.5.54-.6.07 0 .2-.04.26-.07.08-.02.5-.06.96-.08zM72.4 353.34c-.13-.23-.32-.23-.75 0-.97.5-1.96 1.86-1.94 2.65.03.7.6 1.07 1.2.77.4-.2 1.1-.98 1.2-1.34.22-.7.4-1.9.3-2.08zm175.45 0c-.12-.23-.3-.23-.74 0-.96.5-1.94 1.86-1.93 2.65.02.7.6 1.07 1.2.77.38-.2 1.08-.98 1.2-1.34.22-.7.38-1.9.28-2.08zm-66.93.84c-.06-.07-.2-.12-.35-.12-.36.02-1.3.17-1.47.23-.07.04-.45.15-.84.24-1.28.3-2.77 1.1-5.03 2.68-1.46 1.02-2.58 2-4.98 4.33-1.5 1.46-1.7 1.7-1.73 1.98-.03.3-.02.32.33.34.63.06 2.07-.76 7.93-4.5 5.6-3.6 6.4-4.2 6.3-4.8-.04-.13-.1-.3-.16-.38zm-29.03 1.56c-.82-.22-1.3-.06-2.32.8-2.14 1.77-5.05 5.03-6.64 7.46-.75 1.14-1.08 1.86-1.08 2.37 0 .63.54.53 2.57-.48 1.64-.8 2.06-1.07 3.06-1.88.4-.34 1.26-1 1.9-1.48.64-.48 1.27-1 1.4-1.16.14-.16.4-.7.6-1.2.18-.5.4-1 .5-1.14.24-.32.33-.8.34-1.75 0-.88-.13-1.47-.35-1.54zm-85.54.9c-.44-.17-.87-.17-1.18 0-.34.2-1.6 1.7-2.45 3-.73 1.08-1.63 2.82-2.18 4.2-.54 1.38-.26 1.6 1.28 1.07 1.18-.4 2.03-.85 2.9-1.5.84-.62 2.25-1.95 3.16-2.97.56-.64.66-.8.66-1.1 0-.26-.06-.37-.34-.6-.2-.18-.6-.68-.93-1.13-.47-.64-.68-.86-.94-.97zm175.46 0c-.43-.17-.86-.17-1.18 0-.34.2-1.58 1.7-2.45 3-.74 1.08-1.64 2.82-2.2 4.2-.52 1.38-.25 1.6 1.3 1.07 1.17-.4 2.02-.85 2.9-1.5.83-.62 2.24-1.95 3.15-2.97.58-.64.68-.8.68-1.1 0-.26-.07-.37-.35-.6-.2-.18-.6-.68-.93-1.13-.45-.64-.66-.86-.93-.97zm-16.28-10.23c.5-.1 1.3-.1 1.84.02 1 .2 1.9.88 1.9 1.4 0 .17-.06.36-.12.42-.07.07-.2.28-.32.46-.4.64-1.7 1.72-2.52 2.08-.56.26-1.73.47-2.13.4-.64-.12-1.02-.32-1.1-.57-.22-.8.16-1.9 1.06-3.14.5-.67.87-.96 1.38-1.07z"/>
</svg>
