<svg xmlns="http://www.w3.org/2000/svg" width="54" height="63" fill="none"><path fill="#E03A3E" fill-rule="evenodd" d="M43.8433 42.468L51.4908 35.093L54 45.4622L51.3848 44.6907C47.1379 52.7456 38.5508 59.1401 28.9039 59.792L27.3335 63L25.7592 59.7842C15.6166 59.1077 6.63501 52.0977 2.69531 43.394L0 44.0017L3.18323 33.8296L10.3312 41.688L8.02234 42.2004C11.1812 48.168 17.4744 50.9983 24.6845 51.54V23.625H17.6669C17.1359 24.1621 16.4037 24.49 15.5961 24.49C13.9833 24.49 12.6714 23.175 12.6714 21.5449C12.6714 19.9165 13.9833 18.5959 15.5961 18.5959C16.4045 18.5959 17.1359 18.9287 17.6669 19.4617H24.6845V16.3037C21.2531 15.2883 18.729 12.115 18.729 8.33594C18.729 3.74658 22.4362 0 27.0012 0C31.567 0 35.2765 3.74658 35.2757 8.33594C35.2757 11.8743 33.0714 14.8843 29.988 16.0986V19.4658H36.3339C36.8712 18.928 37.6034 18.5959 38.4086 18.5959C40.0198 18.5959 41.3293 19.9165 41.3293 21.5449C41.3293 23.175 40.0198 24.49 38.4086 24.49C37.5947 24.49 36.8625 24.1621 36.3339 23.625H29.988V51.5566C36.8304 51.0813 42.8385 48.6567 46.1615 43.1484L43.8433 42.468ZM27.0043 4.0603C24.6633 4.0603 22.7598 5.97559 22.7598 8.33594C22.7598 10.6973 24.6594 12.6165 27.0004 12.6157C29.3406 12.6157 31.2488 10.6965 31.2488 8.33594C31.2488 5.97559 29.3445 4.0603 27.0043 4.0603Z" clip-rule="evenodd"/></svg>