<svg xmlns="http://www.w3.org/2000/svg" width="89" height="68" fill="none"><path fill="#DB3838" d="M44.2382 50.0912C43.8998 50.2609 43.5203 50.3786 43.1091 50.4553 42.6947 50.521 42.2709 50.5566 41.8376 50.5401V52.4372H44.7665V58.9334H47.9231V48.3556H45.4528C45.418 48.7717 45.2915 49.1194 45.0764 49.4068 44.855 49.686 44.5767 49.9132 44.2382 50.0912zM6.46941 33.2445C6.46941 33.2445 7.64468 30.7707 5.84395 28.1179 4.04322 25.4594 1.2214 24.9333 1.2214 24.9333 1.2214 24.9333-.0760561 27.8576 1.68395 30.4461 3.43522 33.0346 6.46941 33.2445 6.46941 33.2445zM10.9116 34C10.9116 34 13.8195 33.127 14.896 30.2754 15.9697 27.4183 13.9775 24.9333 13.9775 24.9333 13.9775 24.9333 11.3562 26.0636 10.2504 28.9891 9.15044 31.9174 10.9116 34 10.9116 34zM12.3192 37.1819C11.5968 40.3679 13.7485 42.3111 13.7485 42.3111 13.7485 42.3111 16.6658 41.0252 17.3697 37.9253 18.0705 34.8196 15.6193 32.4889 15.6193 32.4889 15.6193 32.4889 13.0447 33.9958 12.3192 37.1819zM18.0195 48.3555C18.0195 48.3555 20.8637 46.8438 21.2596 43.7295 21.6586 40.6124 18.9095 38.5333 18.9095 38.5333 18.9095 38.5333 16.436 40.2408 16.0211 43.4402 15.6125 46.6367 18.0195 48.3555 18.0195 48.3555zM24.9067 52.8889C24.9067 52.8889 27.133 50.6615 26.5158 47.5213 25.8923 44.3782 22.6111 43.0667 22.6111 43.0667 22.6111 43.0667 20.8004 45.3835 21.4334 48.6104 22.0695 51.8344 24.9067 52.8889 24.9067 52.8889zM8.71081 27.2C8.71081 27.2 11.3744 25.7601 11.4098 22.5492 11.4453 19.3411 9.18748 17.3778 9.18748 17.3778 9.18748 17.3778 6.12129 19.1346 6.08587 22.2663 6.04722 25.3895 8.71081 27.2 8.71081 27.2zM7.58873 39.1912C7.58873 39.1912 7.95279 36.7162 5.41601 34.8483 2.87341 32.9857.0162596 33.2584.0162596 33.2584.0162596 33.2584-.327414 36.1656 2.14529 37.9846 4.62382 39.7984 7.58873 39.1912 7.58873 39.1912zM10.6496 46.2566C10.6496 46.2566 10.3971 43.2707 7.62162 41.696 4.84342 40.1121 2.2821 41.1105 2.2821 41.1105 2.2821 41.1105 2.65546 44.5865 5.36227 46.1272 8.06635 47.6618 10.6496 46.2566 10.6496 46.2566zM11.6257 48.4673C8.37865 47.8891 6.08545 49.7433 6.08545 49.7433 6.08545 49.7433 7.45093 52.9898 10.611 53.5556 13.7739 54.115 15.9743 51.8521 15.9743 51.8521 15.9743 51.8521 14.8698 49.0456 11.6257 48.4673zM17.4463 52.8956C14.2166 52.764 12.1709 54.6247 12.1709 54.6247 12.1709 54.6247 13.8571 57.2883 17.0098 57.417 20.1596 57.5431 22.0598 55.3372 22.0598 55.3372 22.0598 55.3372 20.6817 53.0244 17.4463 52.8956z"/><path fill="#DB3838" d="M9.29257 29.0394L7.80575 28.7111C7.76914 28.8684 4.34496 44.433 27.4469 55.9111L28.1453 54.6086C6.15561 43.6814 9.15459 29.6309 9.29257 29.0394Z"/><path fill="#DB3838" fill-rule="evenodd" d="M58.4962 61.3203H59.9344V63.9961H60.9617V68H45.2579V67.9833H29.5597V63.9794H30.587V61.3036H32.0252V45.1602H30.587V42.7955H32.3334V41.1506C32.3334 41.1506 43.9058 38.9945 43.9058 34.1959C43.9058 32.626 42.4759 30.9005 40.5934 28.6443L40.1242 29.9558L37.0312 28.8416L37.2228 28.3109C32.1613 28.6082 27.9688 27.2606 24.7147 24.2986C16.6046 16.9048 17.5014 2.15613 17.5458 1.53381L17.6486 0H27.0886L26.6 2.02832C26.3917 2.91467 26.4889 3.63989 26.9109 4.31238C27.9271 5.91284 30.5648 6.76855 31.4949 6.96033H31.5004C31.4893 6.34351 31.4921 5.71277 31.506 5.07373H29.2487V2.47009H45.2607V2.48682H61.2699V5.08752H59.0126C59.0265 5.72937 59.0292 6.35742 59.0181 6.97424H59.0237C59.9566 6.78247 62.5915 5.92664 63.6077 4.32629C64.0325 3.65662 64.1269 2.9314 63.9186 2.04785L63.4272 0.0194092H72.8728L72.9755 1.55322C73.02 2.17566 73.9167 16.9243 65.8066 24.3181C62.5526 27.28 58.3601 28.6249 53.2986 28.3303L53.4874 28.8611L50.3972 29.9752L49.928 28.6637C48.0455 30.9171 46.6156 32.6454 46.6156 34.2153C46.6156 39.0139 58.188 41.1674 58.188 41.1674V42.8151H59.9344V45.1796H58.4962V61.3203ZM60.9922 11.1199H58.7072C57.8215 17.1965 55.3365 21.5951 52.8516 24.9849C57.2828 25.3711 60.8895 24.3403 63.5882 21.8868C69.1384 16.8325 69.7242 7.07141 69.7325 3.30371H67.2948C67.2254 4.30127 66.9144 5.24316 66.373 6.099C65.0126 8.2301 62.5387 9.33044 60.9922 9.83618V11.1199ZM26.9304 21.8729C21.3774 16.8186 20.7943 7.0575 20.786 3.28979H23.2238C23.2904 4.28455 23.6041 5.22925 24.1456 6.08508C25.5032 8.21619 27.9799 9.31653 29.5236 9.82227V11.106H31.8114C32.6971 17.1854 35.1793 21.5839 37.6698 24.9738C33.233 25.3572 29.6319 24.3264 26.9304 21.8729ZM45.2607 61.3203H56.0278V45.7993H45.2551V45.7826H34.4879V61.3037H45.2607V61.3203Z" clip-rule="evenodd"/><path fill="#DB3838" d="M83.2936 33.2445C83.2936 33.2445 86.3234 33.0374 88.0796 30.4461 89.8358 27.8576 88.539 24.9333 88.539 24.9333 88.539 24.9333 85.7186 25.4594 83.9187 28.1179 82.1131 30.7707 83.2936 33.2445 83.2936 33.2445zM79.7298 33.8921C79.7298 33.8921 81.4972 31.8101 80.397 28.8827 79.2909 25.9554 76.6692 24.8254 76.6692 24.8254 76.6692 24.8254 74.6736 27.3096 75.7533 30.1659 76.8242 33.0194 79.7298 33.8921 79.7298 33.8921zM76.7719 42.3111C76.7719 42.3111 78.9249 40.3679 78.202 37.1847 77.4823 33.9987 74.9031 32.4889 74.9031 32.4889 74.9031 32.4889 72.4505 34.8196 73.1517 37.9253 73.8498 41.0252 76.7719 42.3111 76.7719 42.3111zM70.8529 38.5333C70.8529 38.5333 68.1018 40.6146 68.5012 43.728 68.8973 46.8414 71.7403 48.3555 71.7403 48.3555 71.7403 48.3555 74.1459 46.6344 73.7402 43.4388 73.325 40.2403 70.8529 38.5333 70.8529 38.5333z"/><path fill="#DB3838" d="M64.0056 47.5197C63.3884 50.6667 65.6147 52.8889 65.6147 52.8889 65.6147 52.8889 68.4519 51.837 69.088 48.6121 69.7209 45.3842 67.9103 43.0667 67.9103 43.0667 67.9103 43.0667 64.6228 44.3786 64.0056 47.5197zM81.8122 27.2C81.8122 27.2 84.4741 25.3895 84.4355 22.2663 84.4 19.1374 81.3352 17.3778 81.3352 17.3778 81.3352 17.3778 79.0729 19.3411 79.1116 22.5492 79.1502 25.7601 81.8122 27.2 81.8122 27.2zM88.9841 33.2581C88.9841 33.2581 86.1269 32.9879 83.5843 34.8479 81.0447 36.7156 81.4116 39.1904 81.4116 39.1904 81.4116 39.1904 84.3795 39.8002 86.8551 37.9839 89.3248 36.1651 88.9841 33.2581 88.9841 33.2581zM81.3812 41.7C78.603 43.278 78.3504 46.2582 78.3504 46.2582 78.3504 46.2582 80.9309 47.6636 83.6378 46.1226 86.3446 44.5816 86.7179 41.1052 86.7179 41.1052 86.7179 41.1052 84.1566 40.1159 81.3812 41.7zM78.1337 48.4664C74.8906 49.0448 73.7863 51.8518 73.7863 51.8518 73.7863 51.8518 75.9861 54.1151 79.1481 53.5555 82.3101 52.9929 83.6752 49.7426 83.6752 49.7426 83.6752 49.7426 81.3769 47.8912 78.1337 48.4664zM67.7009 55.3383C67.7009 55.3383 69.601 57.543 72.7509 57.417 75.9007 57.2883 77.5898 54.629 77.5898 54.629 77.5898 54.629 75.5441 52.7666 72.3144 52.8953 69.0846 53.0295 67.7009 55.3383 67.7009 55.3383z"/><path fill="#DB3838" d="M82.7156 28.7111L81.2288 29.0394C81.3668 29.6309 84.3714 43.6814 62.3761 54.6086L63.0745 55.9111C86.1764 44.433 82.7522 28.8684 82.7156 28.7111Z"/></svg>