<svg xmlns="http://www.w3.org/2000/svg" width="60" height="49" fill="none"><path fill="#E03A3E" fill-opacity=".9" fill-rule="evenodd" d="M60 4.8503C54.491 9.04194 50.5689 13.0239 48.2335 16.7964C45.8982 20.5689 44.7305 24.7305 44.7305 29.2814C46.2874 28.3233 48.0838 27.8443 50.1198 27.8443C52.8743 27.8443 55.1198 28.7724 56.8563 30.6287C58.5928 32.485 59.4611 34.8503 59.4611 37.7246C59.4611 40.9581 58.3533 43.5928 56.1377 45.6287C53.9222 47.6647 50.9581 48.6826 47.2455 48.6826C38.7425 48.6826 34.491 43.0539 34.491 31.7964C34.491 28.8024 34.8503 26.018 35.5689 23.4431C36.2874 20.8682 37.4551 18.3533 39.0719 15.8982C40.6886 13.4431 42.8742 10.9282 45.6288 8.35329C48.3833 5.77843 51.7964 2.99403 55.8683 0L60 4.8503ZM25.509 4.8503C20 9.04194 16.0779 13.0239 13.7425 16.7964C11.4072 20.5689 10.2395 24.7305 10.2395 29.2814C11.7964 28.3233 13.5928 27.8443 15.6287 27.8443C18.3832 27.8443 20.6287 28.7724 22.3653 30.6287C24.1018 32.485 24.9701 34.8503 24.9701 37.7246C24.9701 40.9581 23.8623 43.5928 21.6467 45.6287C19.4311 47.6647 16.4671 48.6826 12.7545 48.6826C4.25145 48.6826 0 43.0539 0 31.7964C0 28.8024 0.359278 26.018 1.07784 23.4431C1.79641 20.8682 2.96406 18.3533 4.58084 15.8982C6.19761 13.4431 8.38322 10.9282 11.1377 8.35329C13.8922 5.77843 17.3054 2.99403 21.3772 0L25.509 4.8503Z" clip-rule="evenodd"/></svg>