<svg xmlns="http://www.w3.org/2000/svg" viewBox="0 0 280 600" fill-rule="nonzero" xmlns:v="https://vecta.io/nano"><path d="M206.92 210.4L172.4 264h54.8v214H280V210.4h-73.08 0zM182 210h-62L53.12 312.92V210H0v268h53.12V373.04L125.76 478h63.72l-93.6-135.68L182 210z" fill="#e03a3e"/><g fill="#1c273e"><path d="M261.62 498h-.96l-18.38 45.7h9.32l1.14-2.53h16.93l1 2.52H280L261.62 498zm-5.7 34.9l5.26-12.92 5.08 12.9h-10.33l-.01.02zM230 543.4h8.9v-44.05h-8.87v44.1l-.04-.05h.01zm-14.45-18.96l-21.3-25.1h-3.3v44.1h.22v.14h8.75v-24l21.36 23.95h3.28v-44.18h-8.97v25.1h-.05l.01-.01zm-39.12 0L155 499.36h-3.2v44.1h.2v.14h8.76v-24l21.3 23.95h3.34v-44.18h-8.97v25.1-.03zM128.3 498l-18.47 45.7h9.4l1.06-2.53h16.88l1.05 2.52h9.36L129.2 498h-.95.05zm-4.73 34.9l5.12-12.92 5.15 12.9h-10.28l.01.02zm-6.3-33.62H86.64v9.07h10.28v35.1h8.97v-35.1h11.37v-9.07h.01zM72.2 543.46h9v-44.1h-9.04v44.1h.04zm-7-24.13c.96-1.83 1.57-3.75 1.75-5.95v-1.28c-.18-2.15-.8-4.12-1.75-5.86-1.58-2.88-4.2-5.04-7.3-6.13-1.32-.45-2.77-.68-4.2-.68H36.1v44.27h8.97v-17.6h4.8l7.85 17.68h9.93L58.6 525.1c2.75-1.1 5.1-3.2 6.55-5.77h.05 0zm-7.3-6.27c-.14 2.15-1.98 3.9-4.2 3.9h-8.67v-8.43h8.62c2.18 0 4.07 1.74 4.2 3.94v.6h.04l.01-.01zm-36.1-13c-1.32-.46-2.72-.7-4.2-.7H0v44.28h17.6c1.48 0 2.88-.22 4.2-.68a13.39 13.39 0 0 0 7.3-6.1c1-1.82 1.57-3.8 1.75-5.94v-1.38c-.18-2.06-.75-4.12-1.75-5.8a13.84 13.84 0 0 0-1.58-2.3c.57-.64 1.1-1.37 1.53-2.15 1-1.84 1.58-3.77 1.75-5.96v-1.28c-.17-2.16-.74-4.13-1.75-5.87-1.57-2.9-4.2-5.04-7.3-6.14h.04l.01.02zm0 30.5c-.14 2.28-1.98 3.97-4.2 3.97H8.96v-8.56h8.58c2.18 0 4.07 1.83 4.2 4v.54l.04.05h.02zm0-17.54c-.14 2.15-1.98 3.9-4.2 3.9H8.96v-8.4h8.58c2.18 0 4.07 1.75 4.2 3.95v.6l.04-.05h.02z"/><path d="M140.95 538.05c-1.1-.5-13.06-4.03-28.55-4.55-1.2-.06-2.5-.06-3.7-.06-33.03 0-56.65 13.9-57.67 22.46-.5 4.1 6.4 6.34 6.9 6.6 0 0-.05.06-.25.06-4.28-.06-11.58-2.05-11.45-7.68.38-13.82 29.9-24 59.26-24l4.15.06c13.5.45 26.7 3.84 31.62 6.53.9.45.38.83-.32.58h.01zm-80 56.06c-.45-6.07 13.25-30 24.25-44.08 3-3.78 5.44-6.34 7.24-8.07 1.85-1.8 3.32-2.88 4.48-2.88 2.3 0 5 1.8 5.56 4.48-.44-.57-1.02-.77-1.53-.77-1.47 0-4.3 2.3-7.87 6.53-10.88 12.94-28.87 40.4-28.36 44.62 1.48-.06 2.95-.64 4.87-1.86-.14 1.22-4.56 4.42-6.28 4.48-1.1.07-2.24-.64-2.37-2.43l.01-.02zm34-27.12c2.25-3.27 5-6.53 6.6-7.8.4-.27.65-.33.9-.33 1.54 0 3.97 2.5 3.97 4.1 0 .25-.2-.07-.7-.13-.96-.07-3.2 2.43-5.12 5-1.73 2.3-3.97 5.3-5.32 7.67 3.4-4.43 9.8-9.8 15.3-13.77 2.5-1.8 4.42-2.88 5.76-3 .7-.07 3.33 2.68 2.88 3.2-1.4 1.46-6.72 6.13-8.83 11.13 3.06-.26 7.48-3.14 11.44-6.66.07-.06.45-.13.52 0-1.16 1.54-8.84 8.7-13.25 8.7-1.14 0-3.06-2.24-3.06-3 0-1.8 2.04-5.5 3.7-7.43-5.88 3.46-8.9 6.02-13.24 10.82-3.26 3.5-7.1 9.14-5.7 9.78-1.85.45-3.4-1.54-3.84-3.33-.12-.57.2-1.8.96-3.26 1.6-3.66 4.48-8.08 7.04-11.72l-.01.03zm38.9 11.2c1.08-2.95 3.5-7.5 5.88-10.44-6.46 6.6-15.04 15.8-18.88 16.58h-.5c-1.03 0-3.02-1.73-3.02-3.26 0-2.76 3.52-9.22 7.17-14.28 2.24-3.13 4.93-6.2 6.53-7.48.32-.32.7-.4.9-.4 1.53 0 4.03 2.5 4.03 4.17 0 .26-.26-.06-.84-.13-.96-.12-3.64 3.2-5.82 6.02-3.26 4.3-6.46 9.86-6.46 11.7 3.07-1.27 9.6-7.03 12.67-9.97 3.34-3.28 8.07-8.84 11.72-11.66a1.38 1.38 0 0 1 .9-.32c1.53 0 3.96 2.5 3.96 4.1 0 .25-.2-.07-.76-.13-.45 0-1.28.56-2.12 1.46-.96 1.02-2.75 3.33-4.86 6.14-3.2 4.3-5.57 8.84-5.57 10.63 4.03-1.22 13.12-9.92 17.03-13.63.38-.32.7.2.5.38-5.56 6.08-16 16.77-19.83 16.77-.32 0-.7-.13-1.03-.4-1.02-.5-2.3-1.97-2.3-3.12 0-.64.38-1.8.7-2.75v.02zm41.43-16.9c-2.94-.26-12.86 5.82-13.7 8.83-.25 1.1 1.3 2.12 1.93 2.7 10.25-5.76 18.44-7.17 19.27-7.17.13 0 .4.13.4.32.56.2-12.1 3.52-19.1 7.68.85.64 2.45 2.5 2.25 3.84-.9 4.16-9.34 7.55-13.5 7.55-1.4 0-2.1-1.15-2.43-2.56.18-2.75 9.6-8.12 11.83-9.02-.7-.9-4.48-3.2-3.9-6.02 1.02-4.86 10.23-9.66 15.87-9.66 1.8 0 2.62 2.94 2.43 4.8-.07.9-4.1 4.74-5.83 4.74-.06 0-.2-.26-.12-.26.2 0 4.48-4.48 4.6-5.76v-.01zm-12.8 13.25c-3.84 2.17-8.57 5.37-10.43 7.23 2.5-.7 10.43-4.8 10.43-7.23zm31.33-26.43c5-6.53 6.8-8.58 8.4-9.86.96-.77 1.8-1.28 2.36-1.28 3.6-.2 6.15 3.52 4.93 2.82-2.06-.96-5.83 4.16-8.65 7.8 10.3-.5 23.8 0 32.96 1.92.52.13.78.26 0 .2-12.66-1.1-24.37-1.03-35.06.57-2.37 2.95-4.48 6.15-7.04 9.92-5.57 8.44-10.37 16.57-11.9 20.66 2.75.32 13.37-10.1 17.15-13.56.38-.32.64.2.45.38-3.14 3.58-14.28 15.23-18.12 16.64-.83.32-1.47.06-2.04-.26-.52-.25-1.92-1.6-2.3-2.56-.07-.12-.2-.25-.2-.96 0-1.92 2.88-8.2 10.75-20.35 1.72-2.63 3.58-5.45 5.94-8.58-6.08 1.2-9.85 4.28-8.2 5.24-1 0-3.2-1.2-3.38-3.26-.26-2.88 6.78-4.67 13.95-5.5v.02z"/></g></svg>