<svg xmlns="http://www.w3.org/2000/svg" viewBox="0 0 280 600" fill-rule="nonzero" xmlns:v="https://vecta.io/nano"><path d="M206.92 210.4L172.4 264h54.8v214H280V210.4h-73.08 0zM182 210h-62L53.12 312.92V210H0v268h53.12V373.04L125.76 478h63.72l-93.6-135.68L182 210z" fill="#e03a3e"/><g fill="#1c273e"><path d="M261.62 498h-.96l-18.38 45.7h9.32l1.14-2.53h16.93l1 2.52H280L261.62 498zm-5.7 34.9l5.26-12.92 5.08 12.9h-10.33l-.01.02zM230 543.4h8.9v-44.05h-8.87v44.1l-.04-.05h.01zm-14.45-18.96l-21.3-25.1h-3.3v44.1h.22v.14h8.75v-24l21.36 23.95h3.28v-44.18h-8.97v25.1h-.05l.01-.01zm-39.12 0L155 499.36h-3.2v44.1h.2v.14h8.76v-24l21.3 23.95h3.34v-44.18h-8.97v25.1-.03zM128.3 498l-18.47 45.7h9.4l1.06-2.53h16.88l1.05 2.52h9.36L129.2 498h-.95.05zm-4.73 34.9l5.12-12.92 5.15 12.9h-10.28l.01.02zm-6.3-33.62H86.64v9.07h10.28v35.1h8.97v-35.1h11.37v-9.07h.01zM72.2 543.46h9v-44.1h-9.04v44.1h.04zm-7-24.13c.96-1.83 1.57-3.75 1.75-5.95v-1.28c-.18-2.15-.8-4.12-1.75-5.86-1.58-2.88-4.2-5.04-7.3-6.13-1.32-.45-2.77-.68-4.2-.68H36.1v44.27h8.97v-17.6h4.8l7.85 17.68h9.93L58.6 525.1c2.75-1.1 5.1-3.2 6.55-5.77h.05 0zm-7.3-6.27c-.14 2.15-1.98 3.9-4.2 3.9h-8.67v-8.43h8.62c2.18 0 4.07 1.74 4.2 3.94v.6h.04l.01-.01zm-36.1-13c-1.32-.46-2.72-.7-4.2-.7H0v44.28h17.6c1.48 0 2.88-.22 4.2-.68a13.39 13.39 0 0 0 7.3-6.1c1-1.82 1.57-3.8 1.75-5.94v-1.38c-.18-2.06-.75-4.12-1.75-5.8a13.84 13.84 0 0 0-1.58-2.3c.57-.64 1.1-1.37 1.53-2.15 1-1.84 1.58-3.77 1.75-5.96v-1.28c-.17-2.16-.74-4.13-1.75-5.87-1.57-2.9-4.2-5.04-7.3-6.14h.04l.01.02zm0 30.5c-.14 2.28-1.98 3.97-4.2 3.97H8.96v-8.56h8.58c2.18 0 4.07 1.83 4.2 4v.54l.04.05h.02zm0-17.54c-.14 2.15-1.98 3.9-4.2 3.9H8.96v-8.4h8.58c2.18 0 4.07 1.75 4.2 3.95v.6l.04-.05h.02z"/><path d="M80.298 525.03c.356-.1 2.968.06 4.283.27 3.413.54 4.847.92 6.529 1.7 1.207.58 2.018 1.73 1.781 2.57-.267 1.03-1.019 1.93-2.908 3.5-1.8 1.5-2.008 1.6-3.987 2.42-1.8.72-2.73.76-2.73.1 0-.33.673-1.47 1.979-3.34l1.118-1.77c.297-.57.326-.7.297-1.23-.02-.6-.02-.6-.376-.8-.732-.4-1.543-.52-3.423-.45l-2.424.15a18.15 18.15 0 0 1-1.781.1c-1.454 0-4.867.4-8.508 1l-1.998.3-4.729.84-3.858.68c-1.385.2-8.033 1.66-8.676 1.93-.366.16-1.919.57-4.303 1.12l-2.839.72-2.473.7c-2.374.63-2.513.8-1.622 2 .297.4.544.8.544.9 0 .3-.524 1.18-1.138 1.9-.772.88-1.583 1.9-1.741 2.2l-1.029 1.5-2.058 2.9-2.602 3.54-5.372 7.58-.228.5.228.2c.198.17.356.22.692.22.831 0 2.196-.2 3.561-.5 1.899-.43 5.006-.9 9.101-1.36 5.342-.6 6.905-.7 12.148-.72 1.187 0 7.558.2 9.833.3 1.187.06 1.523.1 1.88.27.851.4 1.256.97.989 1.46-.059.14-.257.35-.435.46-.297.18-.396.18-5.876.27l-6.153.17c-1.514.2-2.256.3-4.056.42-2.592.2-4.966.5-8.874 1.1-4.689.72-7.39 1.25-10.387 2.04-2.523.66-5.797 1.72-6.648 2.16-.465.24-.495.28-1.583 2.12-2.869 4.8-4.392 7.92-7.271 14.8-1.138 2.7-2.058 5.34-2.424 6.87-.04.2-.198.72-.317 1.18-.465 1.54-.534 2.35-.455 5.13.099 4.15.119 4-.138 4.2-.129.1-.346.17-.633.17-.495 0-.722-.13-1.781-1.05-.396-.33-.722-.6-.752-.6-.158 0-.495-.63-.653-1.2-.228-.86-.297-3.3-.168-5.74.119-1.87.178-2.28.594-3.56a67.86 67.86 0 0 0 .465-1.7c.129-.54.396-1.43.613-1.95l.544-1.48c.544-1.7 2.048-5.07 3.997-9a113.7 113.7 0 0 0 1.187-2.48c.514-1.18.534-1.25.396-1.46-.069-.1-.267-.27-.445-.35-.297-.14-.396-.14-1.682 0-2.315.28-3.72.2-4.6-.25-.465-.24-1.246-1.14-1.246-1.45 0-.3.297-.62 1.049-1.1 1.059-.7 1.979-1.1 6.311-2.86 4.511-1.82 5.283-2.2 5.639-2.88 1.118-2.02 1.553-2.66 3.937-5.85 1.157-1.55 2.473-3.4 2.928-4.1l.831-1.26.04-.72c.04-.7.069-.78.692-1.95.692-1.3.989-1.75 2.533-3.8 1.009-1.33 2.246-3.26 2.246-3.5 0-.07-.049-.17-.099-.22-.277-.2-.692-.16-2.048.22-1.612.45-2.038.6-4.887 1.75L22.199 542a5.09 5.09 0 0 0-.989.4 68.81 68.81 0 0 1-2.246 1.07l-4.778 2.22-5.312 2.48c-3.937 1.85-5.045 2.05-6.826 1.26-.95-.42-2.048-2.24-2.048-3.37 0-.4.396-.7 1.088-.8 1.405-.24 3.482-1.03 5.757-2.2a55.06 55.06 0 0 1 3.512-1.6c.524-.2 1.187-.5 1.484-.66.317-.14.594-.27.633-.27.059 0 .692-.26 1.444-.58 3.858-1.66 6.806-2.77 10.684-4l2.602-.88c.148-.1 4.353-1.43 4.847-1.54.168-.05.692-.1 1.167-.14.989-.07 4.927-1 7.815-1.83.94-.3 2.216-.6 2.829-.73a82.26 82.26 0 0 0 3.067-.7c1.059-.28 2.127-.53 2.374-.56.228-.03 1.217-.25 2.206-.5.969-.25 2.256-.53 2.849-.63s1.652-.32 2.345-.47l2.077-.46c1.949-.44 9.398-1.5 12.287-1.77.871-.07 2.077-.22 2.671-.32.752-.13 1.85-.2 3.73-.27l2.8-.13.03.01zm92.555 9.3c1.949-.1 2.997.07 3.363.5.099.14.099.2.02.35a.6.6 0 0 0-.099.28c0 .05-.317.64-.692 1.32-.356.66-.663 1.24-.663 1.3 0 .03-.277.4-.613.78-.336.4-.791 1.02-1.029 1.4a23.28 23.28 0 0 1-1.039 1.45 23.97 23.97 0 0 0-2.424 3.85c-.692 1.37-1.335 2.42-2.157 3.5-.317.4-1.148 1.6-1.86 2.67-.692 1.07-1.583 2.4-1.979 2.95-.396.57-.712 1.08-.712 1.15s-.129.33-.277.58c-.168.25-.326.57-.396.72-.04.15-.396.7-.762 1.2-.376.5-1.128 1.64-1.662 2.5-2.246 3.56-2.671 4.2-3.759 5.72a119.96 119.96 0 0 0-2.107 3c-.524.77-1.207 1.74-1.514 2.15-.297.4-.811 1.25-1.118 1.85-.554 1.07-.554 1.1-.435 1.4.138.32.297.38.692.22.119-.04.455-.17.752-.3.297-.1 1.108-.6 1.85-1.1.712-.52 1.504-1.06 1.741-1.2 1.444-.83 3.413-2.13 3.937-2.6.336-.3.95-.77 1.355-1.05.415-.27 1.286-.92 1.959-1.43.692-.52 1.514-1.13 1.86-1.35.643-.44 1.533-1.07 2.869-2.03.96-.7 2.176-1.34 3.185-1.64l2.453-.77c.92-.28 1.998-.58 2.394-.64.989-.16 2.127-.15 2.829.04.326.08 1.187.22 1.899.3 1.553.16 2.137.3 2.552.67.396.36.435.55.297 1.5-.148.88-.376 1.4-1.227 2.73-.317.5-.791 1.34-1.088 1.86-.277.53-.613 1.13-.752 1.35-.138.23-.554 1-.92 1.72-.791 1.56-.851 1.94-.366 2.18.455.24 1.187.1 3.235-.55 1.484-.5 2.434-.9 5.045-2.1 2.077-1 3.64-1.67 4.521-1.96.722-.25 1.385-.45 1.444-.45.069 0 .228-.3.366-.67.158-.45.752-1.46 1.929-3.26 1.899-2.95 3.017-4.46 4.076-5.5.692-.7 2.077-2.64 2.374-3.35.168-.37.168-.88 0-1.3l-.099-.33-.89-.1c-1.217-.15-3.413-.16-9.2-.02-6.628.15-9.398 0-12.405-.6-.92-.2-1.266-.33-2.176-.8-.623-.3-1.118-.6-1.118-.63 0-.1 1.286-.45 1.979-.54.396-.06 5.837-.1 13.672-.1h13.009l.93-.93c.594-.6 1.128-1.23 1.484-1.77.277-.47 1.068-1.45 1.741-2.2.663-.72 1.405-1.57 1.642-1.87 1.316-1.65 1.632-1.9 2.77-2.2.732-.2 2.968-.23 3.363-.05.178.07.544.42.861.82l.544.68-.257.22c-2.948 2.5-5.293 4.75-6.41 6.13l-.574.7.89.07c.989.1 2.523.1 16.323 0l12.692.03 6.687.2c2.058.05 3.858.12 4.007.17.138.03.228.08.198.08a35.43 35.43 0 0 0-1.405.27c-2.968.6-5.718.88-9.833 1l-7.894.36-13.949.6-10.17.45c-1.009.28-1.345.54-2.077 1.67-.326.48-1.088 1.4-1.682 2.06-.594.65-1.088 1.2-1.088 1.26 0 .04-.099.1-.198.15-.297.1-.831.96-1.246 2-.198.47-.435.98-.544 1.12a152.9 152.9 0 0 0-1.702 2.55c-2.424 3.65-3.314 5.53-3.532 7.46-.198 1.95.228 3.3 1.266 3.82.692.36 1.405.45 2.968.4 2.275-.1 4.283-.48 6.727-1.3l1.425-.46.158-.54c.178-.64.465-1.28.692-1.6.099-.12.356-.53.564-.9.613-1.07 1.266-1.9 2.631-3.35 1.761-1.84 2.443-2.72 2.918-3.72.495-1.04 1.068-1.88 1.385-2.1.138-.08.336-.26.455-.4.396-.48 2.206-.6 3.047-.2.495.22 1.118.9 1.118 1.2 0 .4-.336.83-2.077 2.6-.989 1-2.008 2.14-2.295 2.5-2.938 3.9-3.492 4.76-3.69 5.58-.049.22-.03.26.198.34.663.27 1.979.06 4.946-.77 2.592-.74 5.085-1.58 7.598-2.6l2.809-1.07.594-.2.92-1.54c1.108-1.88 1.682-2.6 2.869-3.74.524-.47 1.385-1.4 1.959-2.1.554-.67 1.118-1.3 1.227-1.37.544-.37 1.998-.7 3.957-.9 2.345-.24 2.839-.22 3.72.2.356.18.772.38.96.46.376.17 1.434 1.5 1.721 2.15.168.38.178.56.138 1.76-.049 1.7-.099 1.67 1.326 1.67.554 0 1.484-.04 2.077-.08 1.217-.1 1.207-.1 1.682-1a12.22 12.22 0 0 1 .633-1.13c.198-.34.495-.9.692-1.27.148-.37.475-.96.692-1.32.237-.37.495-.75.544-.86.198-.3.752-.4 2.077-.37l1.187.05.495.32c.297.2.574.45.663.58.218.33.178 1-.099 1.6-.297.63-.297.85 0 .92.356.1.712 0 1.237-.37.257-.17.96-.55 1.563-.84.594-.3 1.385-.7 1.702-.92 1.088-.7 2.176-.96 3.71-.88.91.04 1.306.17 1.721.55.218.23.554.9.554 1.17 0 .38-.514 1.28-2.473 4.3-1.899 2.95-4.303 7.08-4.61 7.9-.237.7-.099 1.34.277 1.34.228 0 3.334-1.35 4.412-1.94a43.95 43.95 0 0 0 1.682-.9 23.77 23.77 0 0 1 2.246-1c1.326-.53 1.929-.78 3.789-1.6 1.187-.5 4.125-1.46 4.521-1.46.218 0 .247.03.247.3a1.26 1.26 0 0 1-.148.58c-.158.28-.277.36-2.819 1.7-1.019.52-2.345 1.34-3.739 2.28-3.512 2.4-6.628 4.36-8.508 5.33l-.95.52c-.317.26-2.513 1.46-2.8 1.54-.198.06-.712.1-1.128.1-.712 0-.851-.02-1.365-.3-.346-.17-.831-.53-1.187-.9l-.633-.62.059-.57c.02-.3.198-.97.356-1.47.376-1.1 1.622-3.82 2.473-5.38 1.286-2.37 1.543-3.06 1.237-3.4-.178-.2-.594-.23-.871-.07-.099.05-.841.57-1.642 1.15l-1.88 1.36c-.554.4-1.781.98-2.216 1.07-.653.13-1.306.44-1.682.78-.425.42-1.207.8-2.256 1.1-.969.26-1.316.18-1.781-.44-.455-.6-.445-1.04.03-1.8.198-.3.544-.9.791-1.3.218-.44.613-1.05.871-1.38.336-.42.425-.6.326-.62-.129-.02-1.019.16-2.592.53-.415.1-1.148.2-1.612.23-1.306.08-1.662.26-2.513 1.25l-1.207 1.5c-.564.68-1.514 1.57-2.443 2.24-1.583 1.14-5.184 3.28-5.936 3.53-1.237.4-2.226.42-3.492.1-1.583-.4-2.275-.92-2.869-2.1-.435-.86-.425-1.38.04-2.05.198-.27.336-.52.336-.55s.148-.3.317-.6c.168-.28.317-.54.317-.6 0-.02-.495.2-1.088.5-4.481 2.27-10.338 4.7-12.92 5.37-1.425.37-3.363.17-4.511-.46l-.495-.27-.396.25c-.821.58-2.048 1.08-3.512 1.45-3.096.78-6.856.66-9.2-.3-1.652-.68-3.265-2.1-3.957-3.48-.495-.95-.613-1.48-.554-2.58.03-.5.03-.9 0-.9-.079 0-2.008 1.02-3.166 1.67-2.077 1.2-3.908 2.08-6.43 3.07-1.949.8-6.153.83-7.756.1-1.039-.5-1.642-1.48-1.405-2.26a13.52 13.52 0 0 1 .277-.67c.267-.53.218-.97-.099-1.1-.198-.07-.791.22-1.029.47-.346.4-1.019.83-2.443 1.56-.791.4-1.662.9-1.949 1.1-.663.45-2.246 1.2-3.166 1.5a12.66 12.66 0 0 1-3.532.5c-1.781 0-2.602-.27-3.512-1.1l-.495-.47-.425.4c-1.088 1.05-1.979 1.6-3.7 2.27-1.434.56-2.028.7-2.968.7a4.12 4.12 0 0 1-1.721-.3c-.465-.13-.989-.36-1.187-.48-.168-.13-.742-.44-1.256-.7-1.227-.63-1.335-.62-3.185.08-.791.3-1.682.66-1.979.8-.643.28-2.048.58-2.77.58-1.039 0-1.949-.3-3.067-1.1-.791-.5-.91-.75-.91-1.62 0-.73.198-1.38.752-2.66.237-.54.376-.95.326-.92-.059.04-.772.52-1.583 1.1-2.899 1.96-6.361 4.12-8.112 5.03l-.95.52c-.317.26-2.513 1.46-2.8 1.54-.198.06-.712.1-1.128.1-.692 0-.841-.02-1.355-.3-.346-.17-.831-.53-1.187-.9l-.633-.62.049-.57c.02-.3.198-.97.356-1.47.396-1.1 1.632-3.82 2.473-5.38 1.306-2.37 1.553-3.06 1.246-3.4-.178-.2-.594-.23-.871-.07-.099.05-.841.57-1.642 1.15l-1.899 1.36c-.544.4-1.781.98-2.206 1.07-.653.13-1.306.44-1.682.78-.425.42-1.207.8-2.275 1.1-.732.2-.742.2-1.187.06l-.445-.17-3.66 1.23c-2.028.67-4.056 1.3-4.521 1.4-1.088.24-3.007.4-3.917.33-1.454-.1-2.988-.8-4.007-1.83-1.068-1.06-1.187-1.54-.841-3.63.198-1.1.228-1.77.129-1.77-.148 0-1.326.7-1.454.85-.218.28-1.207 1.08-3.304 2.67l-2.434 1.88c-1.148.92-4.096 2.05-5.342 2.05-1.059 0-2.671-1.13-3.284-2.3-.168-.32-.198-.52-.198-1.3 0-1.17.178-1.73 1.138-3.7.692-1.4.732-1.52.544-1.52-.495 0-2.325.3-3.324.55-1.227.32-2.127.46-2.809.46-.297 0-.643.1-.94.22-.495.22-.663.4-2.503 2.67-1.029 1.26-3.294 2.9-6.668 4.8-2.008 1.15-3.235 1.37-5.065.9-1.583-.4-2.275-.92-2.869-2.1-.396-.8-.415-1.38-.03-1.95.297-.43.673-1.1.92-1.63l.613-1.3c.594-1.3 2.335-4.22 2.997-5.08.297-.37.95-1.06 1.454-1.54.495-.47 1.385-1.4 1.939-2.1.564-.67 1.118-1.3 1.237-1.37.554-.37 1.998-.7 3.977-.9 2.325-.24 2.819-.22 3.71.2a21.82 21.82 0 0 0 .95.46c.376.17 1.444 1.5 1.731 2.15.168.38.178.56.148 1.76-.069 1.72-.099 1.67 1.316 1.66 1.612 0 4.768-.15 4.877-.2.138-.07 1.761-2.3 2.869-3.95.435-.62.93-1.27 1.088-1.4.554-.5 1.514-.62 2.404-.3.267.08.653.18.851.2.366.1.752.38.752.6 0 .06-.237.4-.534.72-1.286 1.46-3.69 4.96-4.946 7.15-.692 1.25-1.207 2.5-1.167 2.84.03.2.069.24.346.26.712.07 3.64-1.68 8.636-5.15l7.39-5.04c.762-.5.989-.58 2.097-.65 1.009-.04 1.088-.03 2.394.57l.742.35-.04.6c-.04.74-.148.88-.89 1.3-.791.42-1.514 1.12-1.929 1.9-.415.77-.89 1.42-1.751 2.3-1.454 1.52-1.81 2.98-1.088 4.45l.326.64.534.04c.623.03 1.019-.03 3.561-.57 2.77-.58 4.946-1.08 6.727-1.57l1.563-.42.297-.5c.148-.3.465-.74.692-1.02a13.08 13.08 0 0 0 1.484-2.54c.138-.33.356-.74.495-.9.138-.2.366-.55.495-.8.129-.27.396-.76.594-1.1.218-.34.514-.9.692-1.27.158-.37.495-.96.712-1.32l.534-.86c.198-.3.752-.4 2.077-.37l1.187.05.495.32c.297.2.574.45.663.58.228.33.198 1-.099 1.6-.297.63-.297.85 0 .92.366.1.722 0 1.246-.37.267-.17.969-.55 1.583-.84.594-.3 1.355-.7 1.682-.92 1.088-.7 2.176-.96 3.71-.88.92.04 1.316.17 1.731.55.228.23.554.9.554 1.17 0 .38-.495 1.28-2.473 4.3-1.88 2.95-4.293 7.08-4.59 7.9-.247.7-.119 1.34.267 1.34.237 0 3.334-1.35 4.412-1.94.396-.2 1.148-.6 1.662-.9.524-.27 1.533-.73 2.256-1l2.077-.85c.415-.17 1.256-.53 1.85-.8l1.088-.45.752-.96c.989-1.3 3.166-3.45 4.224-4.2 1.622-1.16 3.957-2.2 5.273-2.3 1.632-.14 4.63.3 5.837.84l.356.15.524-.57c.96-1.07 2.631-3.58 5.54-8.34l6.727-10.83c1.83-2.54 3.304-5.02 3.799-6.36.099-.3.297-.8.435-1.1.119-.3.237-.76.247-1.02.02-.48.03-.5.534-.6.069 0 .198-.04.257-.07.079-.02.495-.06.95-.08l-.049.02zM70.673 562.34c-.129-.23-.317-.23-.742 0-.96.5-1.939 1.86-1.919 2.65.03.7.594 1.07 1.187.77.396-.2 1.088-.98 1.187-1.34.218-.7.396-1.9.297-2.08h-.01zm173.566 0c-.119-.23-.297-.23-.732 0-.95.5-1.919 1.86-1.909 2.65.02.7.594 1.07 1.187.77.376-.2 1.068-.98 1.187-1.34.218-.7.376-1.9.277-2.08h-.01zm-66.211.84c-.059-.07-.198-.12-.346-.12-.356.02-1.286.17-1.454.23-.069.04-.445.15-.831.24-1.266.3-2.74 1.1-4.976 2.68-1.444 1.02-2.552 2-4.927 4.33-1.484 1.46-1.682 1.7-1.711 1.98-.03.3-.02.32.326.34.623.06 2.048-.76 7.845-4.5 5.54-3.6 6.331-4.2 6.232-4.8-.04-.13-.099-.3-.158-.38h0zm-28.718 1.56c-.811-.22-1.286-.06-2.295.8-2.117 1.77-4.996 5.03-6.569 7.46-.742 1.14-1.068 1.86-1.068 2.37 0 .63.534.53 2.542-.48 1.622-.8 2.038-1.07 3.027-1.88a51.35 51.35 0 0 1 1.88-1.48c.633-.48 1.256-1 1.385-1.16.138-.16.396-.7.594-1.2.178-.5.396-1 .495-1.14.237-.32.326-.8.336-1.75 0-.88-.129-1.47-.346-1.54h.02zm-84.621.9c-.435-.17-.861-.17-1.167 0-.336.2-1.583 1.7-2.424 3-.722 1.08-1.612 2.82-2.157 4.2-.534 1.38-.257 1.6 1.266 1.07 1.167-.4 2.008-.85 2.869-1.5.831-.62 2.226-1.95 3.126-2.97.554-.64.653-.8.653-1.1 0-.26-.059-.37-.336-.6-.198-.18-.594-.68-.92-1.13-.465-.64-.673-.86-.93-.97h.02zm173.575 0c-.425-.17-.851-.17-1.167 0-.336.2-1.563 1.7-2.424 3-.732 1.08-1.622 2.82-2.176 4.2-.514 1.38-.247 1.6 1.286 1.07a9.91 9.91 0 0 0 2.869-1.5c.821-.62 2.216-1.95 3.116-2.97.574-.64.673-.8.673-1.1 0-.26-.069-.37-.346-.6-.198-.18-.594-.68-.92-1.13-.445-.64-.653-.86-.92-.97h.01zm-16.105-10.23c.495-.1 1.286-.1 1.82.02.989.2 1.88.88 1.88 1.4 0 .17-.059.36-.119.42-.069.07-.198.28-.317.46-.396.64-1.682 1.72-2.493 2.08-.554.26-1.711.47-2.107.4-.633-.12-1.009-.32-1.088-.57-.218-.8.158-1.9 1.049-3.14.495-.67.861-.96 1.365-1.07h.01z"/></g></svg>