<svg xmlns="http://www.w3.org/2000/svg" width="50" height="3.31" viewBox="0 0 50 3.31"><defs></defs><title>wave</title><path class="a" d="M8.22,0a1,1,0,0,0-.5.25A7.84,7.84,0,0,1,2.85,2a9,9,0,0,1-1.66-.16A1,1,0,0,0,0,2.64c-.1.54.25.37.8.48a11.38,11.38,0,0,0,2,.19A9.78,9.78,0,0,0,8.38,1.44a9.75,9.75,0,0,0,5.56,1.87,9.69,9.69,0,0,0,5.5-1.87A9.76,9.76,0,0,0,25,3.31a9.75,9.75,0,0,0,5.56-1.87,9.69,9.69,0,0,0,5.5,1.87,9.75,9.75,0,0,0,5.56-1.87,9.78,9.78,0,0,0,5.53,1.87,5.81,5.81,0,0,0,2.22-.4c.52-.21.77-.1.56-.62a1,1,0,0,0-1.31-.56A3.71,3.71,0,0,1,47.15,2,7.84,7.84,0,0,1,42.27.26a1,1,0,0,0-1.34,0A7.84,7.84,0,0,1,36.06,2,7.77,7.77,0,0,1,31.21.26a1,1,0,0,0-1.34,0A7.84,7.84,0,0,1,25,2,7.85,7.85,0,0,1,20.12.26a1,1,0,0,0-1.34,0A7.76,7.76,0,0,1,13.94,2,7.84,7.84,0,0,1,9.06.26,1,1,0,0,0,8.22,0Z"/></svg>